<svg width="36" height="39" viewBox="0 0 36 39" fill="none" xmlns="http://www.w3.org/2000/svg">
<path d="M27.9 5.92L24.77 4.12L17.63 0L0 10.18L7.15001 14.31L10.26 16.11L18.01 20.58L35.63 10.4H35.64L27.9 5.92Z" fill="#A6CAF4"/>
<path d="M17.63 0.27002L0.47998 10.18L10.06 15.71L13.65 17.78L18.02 20.23L21.61 18.23L35.17 10.4L17.63 0.27002Z" fill="#53A2F2"/>
<path d="M18.02 20.5799V38.1099L10.28 33.6799L7.15001 31.8799L0 27.7899V10.1799L7.15001 14.3099L10.28 16.1099L18.02 20.5799Z" fill="#056CC1"/>
<path d="M18.02 20.5799V38.1099L35.64 27.9999V10.3999L18.02 20.5799Z" fill="#488DEF"/>
<path d="M27.5998 19.65L27.5098 19.71V18.07L27.5998 18.01V19.65Z" fill="#4F2E16"/>
<path d="M27.9399 18.1799L27.8699 18.2899L27.5499 18.0799L27.2399 18.6599L27.1699 18.6199L27.5499 17.9199L27.9399 18.1799Z" fill="#4F2E16"/>
<path d="M28.5397 19.11L28.4497 19.16V17.52L28.5397 17.47V19.11Z" fill="#4F2E16"/>
<path d="M28.8799 17.6299L28.8099 17.7499L28.4899 17.5399L28.1799 18.1099L28.1099 18.0799L28.4899 17.3799L28.8799 17.6299Z" fill="#4F2E16"/>
<path d="M28.8999 18.9501L27.1398 19.9601C27.1098 19.9801 27.0898 19.9601 27.0898 19.9301C27.0898 19.9001 27.1098 19.8601 27.1398 19.8501L28.8999 18.8401C28.9299 18.8201 28.9498 18.8401 28.9498 18.8701C28.9498 18.9001 28.9299 18.9401 28.8999 18.9501Z" fill="#4F2E16"/>
<path d="M28.8901 19.4L27.1601 20.4C26.9801 20.5 26.8301 20.42 26.8301 20.21V18.22C26.8301 18.01 26.9801 17.75 27.1601 17.65L28.8901 16.65C29.0701 16.55 29.2201 16.63 29.2201 16.84V18.84C29.2201 19.04 29.0701 19.29 28.8901 19.4ZM27.1601 17.75C27.0301 17.83 26.9201 18.01 26.9201 18.16V20.15C26.9201 20.3 27.0301 20.36 27.1601 20.29L28.8901 19.29C29.0201 19.21 29.1301 19.03 29.1301 18.88V16.89C29.1301 16.74 29.0201 16.68 28.8901 16.75L27.1601 17.75Z" fill="#4F2E16"/>
<path d="M30.6101 18.1301C30.5801 18.1501 30.5601 18.1301 30.5601 18.1001V16.6701C30.5601 16.6401 30.5801 16.6001 30.6101 16.5901C30.6401 16.5701 30.6601 16.5901 30.6601 16.6201V18.0501C30.6501 18.0801 30.6301 18.1201 30.6101 18.1301Z" fill="#4F2E16"/>
<path d="M31.4702 17.9L29.7402 18.9C29.5602 19.01 29.4102 18.92 29.4102 18.71V16.71C29.4102 16.5 29.5602 16.24 29.7402 16.14L31.4702 15.14C31.6502 15.03 31.8002 15.12 31.8002 15.33V17.33C31.8002 17.54 31.6502 17.8 31.4702 17.9ZM29.7402 16.25C29.6102 16.32 29.5002 16.51 29.5002 16.66V18.65C29.5002 18.8 29.6102 18.86 29.7402 18.79L31.4702 17.79C31.6002 17.71 31.7102 17.53 31.7102 17.38V15.38C31.7102 15.23 31.6002 15.17 31.4702 15.24L29.7402 16.25Z" fill="#4F2E16"/>
<path d="M31.3201 16.69C31.2501 16.43 30.9601 16.37 30.6101 16.57C30.2601 16.77 29.9601 17.17 29.8901 17.51L31.3201 16.69Z" fill="#4F2E16"/>
<path d="M30.3601 16.5298C30.3301 16.5498 30.3101 16.5298 30.3101 16.4998V16.1498C30.3101 16.1198 30.3301 16.0798 30.3601 16.0698C30.3901 16.0498 30.4101 16.0698 30.4101 16.0998V16.4498C30.4001 16.4798 30.3801 16.5198 30.3601 16.5298Z" fill="#4F2E16"/>
<path d="M30.6101 16.3898C30.5801 16.4098 30.5601 16.3898 30.5601 16.3598V16.0098C30.5601 15.9798 30.5801 15.9498 30.6101 15.9298C30.6401 15.9198 30.6601 15.9298 30.6601 15.9598V16.3098C30.6501 16.3398 30.6301 16.3698 30.6101 16.3898Z" fill="#4F2E16"/>
<path d="M30.8503 16.2499C30.8203 16.2699 30.8003 16.2499 30.8003 16.2199V15.8699C30.8003 15.8399 30.8203 15.7999 30.8503 15.7899C30.8803 15.7799 30.9003 15.7899 30.9003 15.8199V16.1699C30.9003 16.1899 30.8803 16.2299 30.8503 16.2499Z" fill="#4F2E16"/>
<path d="M34.0302 16.43L32.3002 17.43C32.1202 17.53 31.9702 17.45 31.9702 17.24V15.24C31.9702 15.03 32.1202 14.77 32.3002 14.67L34.0302 13.67C34.2102 13.56 34.3602 13.65 34.3602 13.86V15.86C34.3602 16.06 34.2102 16.32 34.0302 16.43ZM32.3002 14.78C32.1702 14.86 32.0602 15.04 32.0602 15.19V17.18C32.0602 17.33 32.1702 17.39 32.3002 17.32L34.0302 16.32C34.1602 16.25 34.2702 16.06 34.2602 15.91V13.92C34.2602 13.77 34.1502 13.71 34.0202 13.78L32.3002 14.78Z" fill="#4F2E16"/>
<path d="M33.1701 16.3798C33.1401 16.3998 33.1201 16.3798 33.1201 16.3498V14.9198C33.1201 14.8898 33.1401 14.8498 33.1701 14.8398C33.1901 14.8198 33.2201 14.8398 33.2101 14.8698V16.2998C33.2101 16.3298 33.1901 16.3698 33.1701 16.3798Z" fill="#4F2E16"/>
<path d="M33.3804 16.26L32.9504 16.51C32.9204 16.52 32.9004 16.51 32.9004 16.48C32.9004 16.45 32.9204 16.41 32.9504 16.4L33.3804 16.15C33.4104 16.14 33.4304 16.15 33.4304 16.18C33.4304 16.21 33.4104 16.24 33.3804 16.26Z" fill="#4F2E16"/>
<path d="M33.6202 14.45V15.12C33.6202 15.3 33.4902 15.52 33.3402 15.61L33.0002 15.81C32.8402 15.9 32.7202 15.83 32.7202 15.65V14.98L32.8902 14.88V15.59C32.8902 15.62 32.9102 15.63 32.9402 15.62C32.9702 15.61 32.9902 15.57 32.9902 15.54V14.83L33.6202 14.45Z" fill="#4F2E16"/>
<path d="M10.2799 12.48V33.68L7.1499 31.88V14.29L10.2799 12.48Z" fill="#1A79D8"/>
<path d="M27.8999 5.92012L10.2799 16.0901L10.2699 16.1101L7.1499 14.3101V14.2901L10.2799 12.4801L24.7699 4.12012L27.8999 5.92012Z" fill="#2E89E5"/>
</svg>
