<svg width="42" height="41" viewBox="0 0 42 41" fill="none" xmlns="http://www.w3.org/2000/svg">
<path d="M39.6699 16.4601L40.8399 17.1401L41.0199 17.0301L39.8499 16.3601L39.6699 16.4601Z" fill="#009CC1"/>
<path d="M40.79 33.12L40.97 33.02L41.02 17.03L40.84 17.14L40.79 33.12Z" fill="#0089AA"/>
<path d="M39.6299 32.4502L40.7899 33.1202L40.8399 17.1402L39.6699 16.4602L39.6299 32.4502Z" fill="#00576C"/>
<path d="M40.9503 32.8098L40.8604 32.8598V32.9698V33.2998L40.9503 33.2398V32.9198V32.8098Z" fill="#0089AA"/>
<path d="M40.8602 32.86L12.2202 16.22V16.33V16.66L40.8602 33.3V32.97V32.86Z" fill="#00566B"/>
<path d="M12.2202 16.2199L40.8602 32.8599L40.9502 32.8099L12.3102 16.1699L12.2202 16.2199Z" fill="#009BBF"/>
<path d="M41.0199 17.1799L40.9199 17.2299V17.3399L40.9299 17.6599L41.0199 17.6099V17.2799V17.1799Z" fill="#0089AA"/>
<path d="M40.9198 17.2301L12.2798 0.590088V0.700088V1.03009L40.9298 17.6601L40.9198 17.3401V17.2301Z" fill="#00566B"/>
<path d="M12.2798 0.590039L40.9198 17.23L41.0198 17.18L12.3798 0.540039L12.2798 0.590039Z" fill="#009BBF"/>
<path d="M28.7101 23.5001L28.1601 23.1801L27.7 23.1601L27.2701 22.9101L27.2401 22.6501L26.6901 22.3301L26.23 22.3101L25.8 22.0601L25.7701 21.8001L25.2101 21.4801L24.7601 21.4601L24.33 21.2101L24.2901 20.9501L23.7401 20.6301L23.2901 20.6101L22.86 20.3601L22.8201 20.1001L22.2701 19.7801L21.8201 19.7601L21.39 19.5101L21.3501 19.2501L20.8 18.9301L20.3501 18.9101L19.92 18.6601L19.8801 18.4001L19.33 18.0801L18.8801 18.0601L18.45 17.8201L18.4101 17.5501L17.86 17.2301L17.4001 17.2101L16.98 16.9701L16.9401 16.7001L16.39 16.3801L15.9301 16.3701L15.5001 16.1201L15.4701 15.8501L14.92 15.5401L14.4601 15.5201L14.0301 15.2701L14.0001 15.0001L13.45 14.6901L12.9901 14.6701L12.5601 14.4201L12.5301 14.1601L11.98 13.8401L11.5201 13.8201L11.0901 13.5701L11.0601 13.3101L10.5101 12.9901L10.05 12.9701L9.62006 12.7201L9.59006 12.4601L9.04007 12.1401L8.58005 12.1201L8.15005 11.8701L8.12006 11.6101L7.57007 11.2901L7.11005 11.2701L6.68005 11.0201L6.65005 10.7601L6.09006 10.4401L5.64005 10.4201L5.21005 10.1701L5.18005 9.91011L4.62006 9.59011L4.17004 9.57011L3.74005 9.32011L3.70004 9.06011L3.15005 8.74011L2.70004 8.72011L2.27005 8.48011L2.23004 8.21011L1.68005 7.89011L1.23004 7.87011L0.77005 7.61011L0.610046 7.70011L0.560059 23.6001L1.08005 23.9001L1.54007 23.9201L1.97006 24.1701L2.00006 24.4301L2.55005 24.7501L3.01007 24.7701L3.44006 25.0201L3.47006 25.2801L4.02005 25.6001L4.48004 25.6201L4.91006 25.8601L4.94006 26.1301L5.49005 26.4501L5.95004 26.4701L6.38007 26.7101L6.41006 26.9801L6.96005 27.3001L7.42004 27.3201L7.85007 27.5601L7.88007 27.8301L8.43005 28.1501L8.89005 28.1601L9.32007 28.4101L9.35007 28.6801L9.91006 28.9901L10.36 29.0101L10.7901 29.2601L10.8201 29.5301L11.3801 29.8401L11.83 29.8601L12.2601 30.1101L12.3 30.3701L12.8501 30.6901L13.3 30.7101L13.73 30.9601L13.7701 31.2201L14.3201 31.5401L14.7701 31.5601L15.2 31.8101L15.2401 32.0701L15.7901 32.3901L16.2401 32.4101L16.67 32.6601L16.7101 32.9201L17.2601 33.2401L17.7101 33.2601L18.14 33.5101L18.1801 33.7701L18.73 34.0901L19.1901 34.1101L19.61 34.3601L19.6501 34.6201L20.2 34.9401L20.6601 34.9601L21.0901 35.2101L21.1201 35.4701L21.67 35.7901L22.1301 35.8101L22.5601 36.0501L22.5901 36.3201L23.14 36.6401L23.6001 36.6601L24.0301 36.9001L24.0601 37.1701L24.61 37.4901L25.0701 37.5001L25.5001 37.7501L25.5301 38.0201L26.08 38.3301L26.5401 38.3501L26.9701 38.6001L27.0001 38.8701L27.55 39.1801L28.0101 39.2001L28.4401 39.4501L28.4701 39.7201L28.9901 40.0201L29.1601 39.9201L29.2 24.0301L28.7401 23.7601L28.7101 23.5001Z" fill="#554615"/>
<path d="M0.560059 23.6L1.08005 23.9L1.13007 7.99995L0.610046 7.69995L0.560059 23.6Z" fill="#4F7296"/>
<path d="M1.08008 23.9L1.5401 23.92L1.58008 8.02L1.1301 8L1.08008 23.9Z" fill="#6088B3"/>
<path d="M1.54004 23.92L1.97003 24.17L2.01004 8.27002L1.58002 8.02002L1.54004 23.92Z" fill="#1A79D8"/>
<path d="M1.97021 24.17L2.00021 24.43L2.0502 8.53002L2.01022 8.27002L1.97021 24.17Z" fill="#0564A5"/>
<path d="M2 24.43L2.54999 24.75L2.60001 8.85003L2.04999 8.53003L2 24.43Z" fill="#1A79D8"/>
<path d="M2.5498 24.7501L3.00983 24.7701L3.0498 8.8701L2.59982 8.8501L2.5498 24.7501Z" fill="#488DEF"/>
<path d="M3.00977 24.7701L3.43976 25.0201L3.47974 9.12012L3.04974 8.87012L3.00977 24.7701Z" fill="#1A79D8"/>
<path d="M3.43994 25.0201L3.46994 25.2801L3.51993 9.38012L3.47992 9.12012L3.43994 25.0201Z" fill="#4A6C8F"/>
<path d="M3.47021 25.2799L4.0202 25.5999L4.07022 9.69988L3.5202 9.37988L3.47021 25.2799Z" fill="#1A79D8"/>
<path d="M4.02002 25.6L4.48001 25.62L4.52002 9.71995L4.07004 9.69995L4.02002 25.6Z" fill="#488DEF"/>
<path d="M4.47998 25.62L4.91 25.86L4.94998 9.96997L4.51999 9.71997L4.47998 25.62Z" fill="#1A79D8"/>
<path d="M4.91016 25.86L4.94016 26.13L4.99014 10.23L4.95013 9.96997L4.91016 25.86Z" fill="#4A6C8F"/>
<path d="M4.93994 26.13L5.48993 26.45L5.53995 10.55L4.98993 10.23L4.93994 26.13Z" fill="#1A79D8"/>
<path d="M5.49023 26.45L5.95023 26.47L5.99023 10.57L5.54025 10.55L5.49023 26.45Z" fill="#488DEF"/>
<path d="M5.9502 26.4701L6.38022 26.7101L6.4202 10.8201L5.9902 10.5701L5.9502 26.4701Z" fill="#1A79D8"/>
<path d="M6.37988 26.7101L6.40988 26.9801L6.45987 11.0801L6.41986 10.8201L6.37988 26.7101Z" fill="#4A6C8F"/>
<path d="M6.41016 26.9801L6.96014 27.3001L7.01016 11.4001L6.46014 11.0801L6.41016 26.9801Z" fill="#1A79D8"/>
<path d="M6.95996 27.2999L7.41995 27.3199L7.45996 11.4199L7.00998 11.3999L6.95996 27.2999Z" fill="#488DEF"/>
<path d="M7.41992 27.3199L7.84995 27.5599L7.88992 11.6699L7.45993 11.4199L7.41992 27.3199Z" fill="#1A79D8"/>
<path d="M7.8501 27.5599L7.8801 27.8299L7.93008 11.9299L7.89008 11.6699L7.8501 27.5599Z" fill="#4A6C8F"/>
<path d="M7.87988 27.8299L8.42987 28.1499L8.47986 12.2499L7.92987 11.9299L7.87988 27.8299Z" fill="#1A79D8"/>
<path d="M8.43018 28.15L8.89017 28.16L8.94019 12.27L8.48016 12.25L8.43018 28.15Z" fill="#488DEF"/>
<path d="M8.89014 28.16L9.32016 28.41L9.36014 12.52L8.94016 12.27L8.89014 28.16Z" fill="#1A79D8"/>
<path d="M9.31982 28.41L9.34982 28.68L9.39981 12.78L9.3598 12.52L9.31982 28.41Z" fill="#4A6C8F"/>
<path d="M9.3501 28.68L9.9101 28.99L9.95007 13.1L9.40009 12.78L9.3501 28.68Z" fill="#1A79D8"/>
<path d="M9.91016 28.9901L10.3601 29.0101L10.4102 13.1201L9.95013 13.1001L9.91016 28.9901Z" fill="#488DEF"/>
<path d="M10.3599 29.0101L10.7899 29.2601L10.8399 13.3701L10.4099 13.1201L10.3599 29.0101Z" fill="#1A79D8"/>
<path d="M10.79 29.2601L10.82 29.5301L10.87 13.6301L10.84 13.3701L10.79 29.2601Z" fill="#4A6C8F"/>
<path d="M10.8198 29.5299L11.3798 29.8399L11.4198 13.9499L10.8698 13.6299L10.8198 29.5299Z" fill="#1A79D8"/>
<path d="M11.3799 29.84L11.8299 29.86L11.8799 13.97L11.4199 13.95L11.3799 29.84Z" fill="#488DEF"/>
<path d="M11.8301 29.86L12.2601 30.11L12.3101 14.21L11.8801 13.97L11.8301 29.86Z" fill="#1A79D8"/>
<path d="M12.2598 30.11L12.2997 30.37L12.3398 14.48L12.3098 14.21L12.2598 30.11Z" fill="#4A6C8F"/>
<path d="M12.2998 30.37L12.8498 30.69L12.8898 14.8L12.3398 14.48L12.2998 30.37Z" fill="#1A79D8"/>
<path d="M12.8501 30.69L13.3001 30.71L13.3501 14.82L12.8901 14.8L12.8501 30.69Z" fill="#488DEF"/>
<path d="M13.2998 30.7101L13.7298 30.9601L13.7798 15.0601L13.3498 14.8201L13.2998 30.7101Z" fill="#1A79D8"/>
<path d="M13.73 30.9601L13.77 31.2201L13.81 15.3301L13.78 15.0601L13.73 30.9601Z" fill="#4A6C8F"/>
<path d="M13.77 31.2201L14.32 31.5401L14.36 15.6501L13.81 15.3301L13.77 31.2201Z" fill="#1A79D8"/>
<path d="M14.3198 31.5399L14.7698 31.5599L14.8198 15.6599L14.3598 15.6499L14.3198 31.5399Z" fill="#488DEF"/>
<path d="M14.77 31.5599L15.2 31.8099L15.25 15.9099L14.82 15.6599L14.77 31.5599Z" fill="#1A79D8"/>
<path d="M15.2002 31.8099L15.2402 32.0699L15.2802 16.1799L15.2502 15.9099L15.2002 31.8099Z" fill="#4A6C8F"/>
<path d="M15.2402 32.0699L15.7903 32.3899L15.8302 16.4899L15.2802 16.1799L15.2402 32.0699Z" fill="#1A79D8"/>
<path d="M15.79 32.39L16.24 32.41L16.29 16.51L15.83 16.49L15.79 32.39Z" fill="#488DEF"/>
<path d="M16.2402 32.41L16.6702 32.66L16.7202 16.76L16.2903 16.51L16.2402 32.41Z" fill="#1A79D8"/>
<path d="M16.6699 32.66L16.7099 32.92L16.7499 17.03L16.7199 16.76L16.6699 32.66Z" fill="#4A6C8F"/>
<path d="M16.71 32.92L17.26 33.24L17.3 17.34L16.75 17.03L16.71 32.92Z" fill="#1A79D8"/>
<path d="M17.2598 33.2401L17.7097 33.2601L17.7598 17.3601L17.2997 17.3401L17.2598 33.2401Z" fill="#488DEF"/>
<path d="M17.71 33.2601L18.14 33.5101L18.19 17.6101L17.76 17.3601L17.71 33.2601Z" fill="#1A79D8"/>
<path d="M18.1401 33.5101L18.1801 33.7701L18.2202 17.8701L18.1902 17.6101L18.1401 33.5101Z" fill="#4A6C8F"/>
<path d="M18.1802 33.7701L18.7302 34.0901L18.7702 18.1901L18.2202 17.8701L18.1802 33.7701Z" fill="#488DEF"/>
<path d="M18.73 34.0899L19.19 34.1099L19.23 18.2099L18.77 18.1899L18.73 34.0899Z" fill="#1A79D8"/>
<path d="M19.1899 34.11L19.6099 34.36L19.6599 18.46L19.2299 18.21L19.1899 34.11Z" fill="#1A79D8"/>
<path d="M19.6099 34.36L19.6499 34.62L19.6899 18.72L19.6599 18.46L19.6099 34.36Z" fill="#4A6C8F"/>
<path d="M19.6499 34.62L20.1999 34.94L20.2499 19.04L19.6899 18.72L19.6499 34.62Z" fill="#1A79D8"/>
<path d="M20.2002 34.94L20.6602 34.96L20.7002 19.06L20.2502 19.04L20.2002 34.94Z" fill="#488DEF"/>
<path d="M20.6602 34.9601L21.0901 35.2101L21.1302 19.3101L20.7001 19.0601L20.6602 34.9601Z" fill="#1A79D8"/>
<path d="M21.0898 35.2101L21.1198 35.4701L21.1698 19.5701L21.1299 19.3101L21.0898 35.2101Z" fill="#4A6C8F"/>
<path d="M21.1201 35.4701L21.6701 35.7901L21.7201 19.8901L21.1701 19.5701L21.1201 35.4701Z" fill="#1A79D8"/>
<path d="M21.6699 35.7899L22.1299 35.8099L22.1699 19.9099L21.7199 19.8899L21.6699 35.7899Z" fill="#488DEF"/>
<path d="M22.1299 35.8099L22.5599 36.0499L22.5999 20.1599L22.1699 19.9099L22.1299 35.8099Z" fill="#1A79D8"/>
<path d="M22.5601 36.0499L22.5901 36.3199L22.64 20.4199L22.6001 20.1599L22.5601 36.0499Z" fill="#4A6C8F"/>
<path d="M22.5898 36.3199L23.1398 36.6399L23.1898 20.7399L22.6398 20.4199L22.5898 36.3199Z" fill="#1A79D8"/>
<path d="M23.1401 36.64L23.6002 36.66L23.6401 20.76L23.1902 20.74L23.1401 36.64Z" fill="#488DEF"/>
<path d="M23.6001 36.66L24.0301 36.9L24.0701 21.01L23.6401 20.76L23.6001 36.66Z" fill="#1A79D8"/>
<path d="M24.0298 36.9L24.0598 37.17L24.1098 21.27L24.0698 21.01L24.0298 36.9Z" fill="#4A6C8F"/>
<path d="M24.0601 37.17L24.61 37.49L24.6601 21.59L24.11 21.27L24.0601 37.17Z" fill="#1A79D8"/>
<path d="M24.6099 37.4901L25.0699 37.5001L25.1099 21.6101L24.6599 21.5901L24.6099 37.4901Z" fill="#488DEF"/>
<path d="M25.0698 37.5001L25.4998 37.7501L25.5398 21.8601L25.1098 21.6101L25.0698 37.5001Z" fill="#1A79D8"/>
<path d="M25.5 37.7501L25.53 38.0201L25.58 22.1201L25.54 21.8601L25.5 37.7501Z" fill="#4A6C8F"/>
<path d="M25.5298 38.0201L26.0798 38.3301L26.1298 22.4401L25.5798 22.1201L25.5298 38.0201Z" fill="#1A79D8"/>
<path d="M26.0801 38.3299L26.5401 38.3499L26.5801 22.4599L26.1301 22.4399L26.0801 38.3299Z" fill="#488DEF"/>
<path d="M26.54 38.35L26.97 38.6L27.01 22.71L26.58 22.46L26.54 38.35Z" fill="#1A79D8"/>
<path d="M26.9702 38.6L27.0002 38.87L27.0502 22.97L27.0102 22.71L26.9702 38.6Z" fill="#4A6C8F"/>
<path d="M27 38.87L27.55 39.18L27.6 23.29L27.05 22.97L27 38.87Z" fill="#1A79D8"/>
<path d="M27.5498 39.18L28.0098 39.2L28.0498 23.31L27.5998 23.29L27.5498 39.18Z" fill="#6088B3"/>
<path d="M28.0098 39.2001L28.4398 39.4501L28.4797 23.5501L28.0497 23.3101L28.0098 39.2001Z" fill="#4F7296"/>
<path d="M28.4399 39.45L28.4699 39.72L28.5199 23.82L28.4799 23.55L28.4399 39.45Z" fill="#4A6C8F"/>
<path d="M28.9902 40.02L29.1602 39.92L29.2002 24.03L29.0403 24.12L28.9902 40.02Z" fill="#6A95C5"/>
<path d="M28.4702 39.7201L28.9902 40.0201L29.0402 24.1201L28.5202 23.8201L28.4702 39.7201Z" fill="#4F7296"/>
<path d="M28.7099 23.5001L28.1599 23.1801L27.6999 23.1601L27.2699 22.9101L27.2399 22.6501L26.6899 22.3301L26.2299 22.3101L25.7999 22.0601L25.7699 21.8001L25.2099 21.4801L24.7599 21.4601L24.3299 21.2101L24.2899 20.9501L23.7399 20.6301L23.2899 20.6101L22.8599 20.3601L22.8199 20.1001L22.2699 19.7801L21.8199 19.7601L21.3899 19.5101L21.3499 19.2501L20.7999 18.9301L20.3499 18.9101L19.9199 18.6601L19.8799 18.4001L19.3299 18.0801L18.8799 18.0601L18.4499 17.8201L18.4099 17.5501L17.8599 17.2301L17.3999 17.2101L16.9799 16.9701L16.9399 16.7001L16.3899 16.3801L15.9299 16.3701L15.4999 16.1201L15.4699 15.8501L14.9199 15.5401L14.4599 15.5201L14.0299 15.2701L13.9999 15.0001L13.4499 14.6901L12.9899 14.6701L12.5599 14.4201L12.5299 14.1601L11.9799 13.8401L11.5199 13.8201L11.0899 13.5701L11.0599 13.3101L10.5099 12.9901L10.0499 12.9701L9.61987 12.7201L9.58987 12.4601L9.03989 12.1401L8.57986 12.1201L8.14987 11.8701L8.11987 11.6101L7.56989 11.2901L7.10986 11.2701L6.67987 11.0201L6.64987 10.7601L6.08987 10.4401L5.63986 10.4201L5.20987 10.1701L5.17987 9.91011L4.61987 9.59011L4.16986 9.57011L3.73987 9.32011L3.69986 9.06011L3.14987 8.74011L2.69986 8.72011L2.26987 8.48011L2.22986 8.21011L1.67987 7.89011L1.22986 7.87011L0.769867 7.61011L0.609863 7.70011L1.12988 8.00011L1.57986 8.02011L2.00989 8.27011L2.04987 8.53011L2.59988 8.85011L3.04987 8.87011L3.47986 9.12011L3.51987 9.38011L4.06989 9.70011L4.51987 9.72011L4.94986 9.97011L4.98987 10.2301L5.53989 10.5501L5.98987 10.5701L6.41986 10.8201L6.45987 11.0801L7.00989 11.4001L7.45987 11.4201L7.88986 11.6701L7.92987 11.9301L8.47986 12.2501L8.93988 12.2701L9.35986 12.5201L9.39987 12.7801L9.94986 13.1001L10.4099 13.1201L10.8399 13.3701L10.8699 13.6301L11.4199 13.9501L11.8799 13.9701L12.3099 14.2101L12.3399 14.4801L12.8899 14.8001L13.3499 14.8201L13.7799 15.0601L13.8099 15.3301L14.3599 15.6501L14.8199 15.6601L15.2499 15.9101L15.2799 16.1801L15.8299 16.4901L16.2899 16.5101L16.7199 16.7601L16.7499 17.0301L17.2999 17.3401L17.7599 17.3601L18.1899 17.6101L18.2199 17.8701L18.7699 18.1901L19.2299 18.2101L19.6599 18.4601L19.6899 18.7201L20.2499 19.0401L20.6999 19.0601L21.1299 19.3101L21.1699 19.5701L21.7199 19.8901L22.1699 19.9101L22.5999 20.1601L22.6399 20.4201L23.1899 20.7401L23.6399 20.7601L24.0699 21.0101L24.1099 21.2701L24.6599 21.5901L25.1099 21.6101L25.5399 21.8601L25.5799 22.1201L26.1299 22.4401L26.5799 22.4601L27.0099 22.7101L27.0499 22.9701L27.5999 23.2901L28.0499 23.3101L28.4799 23.5501L28.5199 23.8201L29.0399 24.1201L29.1999 24.0301L28.7399 23.7601L28.7099 23.5001Z" fill="#74A4D7"/>
<path d="M0.609863 7.50991L3.33987 9.07991L15.1599 2.22991L12.4399 0.659912L0.609863 7.50991Z" fill="#1A79D8"/>
<path d="M3.33984 9.07998L3.57983 9.46998L15.4099 2.61998L15.1599 2.22998L3.33984 9.07998Z" fill="#488DEF"/>
<path d="M3.58008 9.47012L4.0101 9.72012L15.8401 2.86012L15.4101 2.62012L3.58008 9.47012Z" fill="#1A79D8"/>
<path d="M4.00977 9.72001L4.25977 9.62001L16.0797 2.76001L15.8398 2.86001L4.00977 9.72001Z" fill="#4C6E92"/>
<path d="M4.25977 9.62001L4.80975 9.93001L16.6298 3.08001L16.0797 2.76001L4.25977 9.62001Z" fill="#1A79D8"/>
<path d="M4.81006 9.93008L5.05005 10.3201L16.8801 3.47008L16.6301 3.08008L4.81006 9.93008Z" fill="#488DEF"/>
<path d="M5.0498 10.32L5.4798 10.57L17.3098 3.70997L16.8798 3.46997L5.0498 10.32Z" fill="#1A79D8"/>
<path d="M5.47998 10.5701L5.72998 10.4601L17.55 3.61011L17.31 3.71011L5.47998 10.5701Z" fill="#4C6E92"/>
<path d="M5.72998 10.4601L6.28 10.7801L18.1 3.93011L17.55 3.61011L5.72998 10.4601Z" fill="#1A79D8"/>
<path d="M6.27979 10.7799L6.51978 11.1699L18.3498 4.31993L18.0998 3.92993L6.27979 10.7799Z" fill="#488DEF"/>
<path d="M6.52002 11.1701L6.95001 11.4201L18.78 4.56007L18.35 4.32007L6.52002 11.1701Z" fill="#1A79D8"/>
<path d="M6.9502 11.42L7.2002 11.31L19.0202 4.45996L18.7802 4.55996L6.9502 11.42Z" fill="#4C6E92"/>
<path d="M7.2002 11.31L7.75021 11.63L19.5702 4.77996L19.0202 4.45996L7.2002 11.31Z" fill="#1A79D8"/>
<path d="M7.75 11.63L8 12.02L19.82 5.16003L19.57 4.78003L7.75 11.63Z" fill="#488DEF"/>
<path d="M8 12.0199L8.41998 12.2699L20.25 5.40991L19.82 5.15991L8 12.0199Z" fill="#1A79D8"/>
<path d="M8.41992 12.2701L8.66992 12.1601L20.4899 5.31006L20.2499 5.41006L8.41992 12.2701Z" fill="#4C6E92"/>
<path d="M8.66992 12.1601L9.21994 12.4801L21.0399 5.63006L20.4899 5.31006L8.66992 12.1601Z" fill="#1A79D8"/>
<path d="M9.22021 12.4799L9.47021 12.8699L21.2902 6.00988L21.0402 5.62988L9.22021 12.4799Z" fill="#488DEF"/>
<path d="M9.47021 12.87L9.90021 13.11L21.7202 6.26001L21.2902 6.01001L9.47021 12.87Z" fill="#1A79D8"/>
<path d="M9.8999 13.1099L10.1399 13.0099L21.9599 6.15991L21.7199 6.25991L9.8999 13.1099Z" fill="#4C6E92"/>
<path d="M10.1401 13.0099L10.6902 13.3299L22.5201 6.47991L21.9601 6.15991L10.1401 13.0099Z" fill="#1A79D8"/>
<path d="M10.6899 13.33L10.9399 13.72L22.7599 6.85998L22.5199 6.47998L10.6899 13.33Z" fill="#488DEF"/>
<path d="M10.9399 13.7201L11.3699 13.9601L23.1899 7.11011L22.7599 6.86011L10.9399 13.7201Z" fill="#1A79D8"/>
<path d="M11.3701 13.96L11.6101 13.86L23.4401 7.01001L23.1901 7.11001L11.3701 13.96Z" fill="#4C6E92"/>
<path d="M11.6099 13.86L12.1599 14.18L23.9899 7.33001L23.4399 7.01001L11.6099 13.86Z" fill="#1A79D8"/>
<path d="M12.1602 14.1801L12.4102 14.5601L24.2301 7.71008L23.9901 7.33008L12.1602 14.1801Z" fill="#488DEF"/>
<path d="M12.4102 14.56L12.8401 14.81L24.6602 7.95996L24.2301 7.70996L12.4102 14.56Z" fill="#1A79D8"/>
<path d="M12.8398 14.8101L13.0798 14.7101L24.9099 7.86011L24.6599 7.96011L12.8398 14.8101Z" fill="#4C6E92"/>
<path d="M13.0801 14.7101L13.6301 15.0301L25.4601 8.18011L24.9101 7.86011L13.0801 14.7101Z" fill="#1A79D8"/>
<path d="M13.6299 15.0299L13.8799 15.4099L25.6999 8.55993L25.4599 8.17993L13.6299 15.0299Z" fill="#488DEF"/>
<path d="M13.8799 15.4101L14.3099 15.6601L26.1299 8.81006L25.6999 8.56006L13.8799 15.4101Z" fill="#1A79D8"/>
<path d="M14.3101 15.66L14.55 15.56L26.3801 8.70996L26.1301 8.80996L14.3101 15.66Z" fill="#4C6E92"/>
<path d="M14.5498 15.56L15.0998 15.88L26.9298 9.01996L26.3798 8.70996L14.5498 15.56Z" fill="#1A79D8"/>
<path d="M15.1001 15.88L15.3501 16.26L27.1701 9.41002L26.9301 9.02002L15.1001 15.88Z" fill="#488DEF"/>
<path d="M15.3501 16.2599L15.7801 16.5099L27.6001 9.65991L27.1701 9.40991L15.3501 16.2599Z" fill="#1A79D8"/>
<path d="M15.7798 16.5101L16.0198 16.4101L27.8498 9.56006L27.5998 9.66006L15.7798 16.5101Z" fill="#4C6E92"/>
<path d="M16.02 16.4101L16.58 16.7301L28.4 9.87006L27.85 9.56006L16.02 16.4101Z" fill="#1A79D8"/>
<path d="M16.5801 16.7301L16.8201 17.1101L28.6401 10.2601L28.4001 9.87012L16.5801 16.7301Z" fill="#488DEF"/>
<path d="M16.8198 17.11L17.2498 17.36L29.0698 10.51L28.6398 10.26L16.8198 17.11Z" fill="#1A79D8"/>
<path d="M17.25 17.3599L17.5 17.2599L29.32 10.3999L29.07 10.5099L17.25 17.3599Z" fill="#4C6E92"/>
<path d="M17.5 17.2599L18.05 17.5799L29.87 10.7199L29.32 10.3999L17.5 17.2599Z" fill="#1A79D8"/>
<path d="M18.0498 17.58L18.2898 17.96L30.1098 11.11L29.8698 10.72L18.0498 17.58Z" fill="#488DEF"/>
<path d="M18.29 17.9601L18.72 18.2101L30.54 11.3601L30.11 11.1101L18.29 17.9601Z" fill="#1A79D8"/>
<path d="M18.7202 18.21L18.9702 18.11L30.7902 11.25L30.5402 11.36L18.7202 18.21Z" fill="#4C6E92"/>
<path d="M18.9702 18.11L19.5202 18.42L31.3402 11.57L30.7902 11.25L18.9702 18.11Z" fill="#1A79D8"/>
<path d="M19.52 18.4201L19.76 18.8101L31.58 11.9601L31.34 11.5701L19.52 18.4201Z" fill="#488DEF"/>
<path d="M19.7598 18.81L20.1898 19.06L32.0098 12.21L31.5797 11.96L19.7598 18.81Z" fill="#1A79D8"/>
<path d="M20.1899 19.0601L20.4399 18.9601L32.2599 12.1001L32.0099 12.2101L20.1899 19.0601Z" fill="#4C6E92"/>
<path d="M20.4399 18.9601L20.9899 19.2701L32.8099 12.4201L32.2599 12.1001L20.4399 18.9601Z" fill="#1A79D8"/>
<path d="M20.9902 19.2699L21.2302 19.6599L33.0602 12.8099L32.8102 12.4199L20.9902 19.2699Z" fill="#488DEF"/>
<path d="M21.23 19.6601L21.66 19.9101L33.48 13.0501L33.06 12.8101L21.23 19.6601Z" fill="#1A79D8"/>
<path d="M21.6602 19.91L21.9102 19.8L33.7301 12.95L33.4801 13.05L21.6602 19.91Z" fill="#4C6E92"/>
<path d="M21.9102 19.8L22.4601 20.12L34.2802 13.27L33.7301 12.95L21.9102 19.8Z" fill="#1A79D8"/>
<path d="M22.46 20.12L22.7 20.51L34.53 13.66L34.28 13.27L22.46 20.12Z" fill="#488DEF"/>
<path d="M22.7002 20.5099L23.1302 20.7599L34.9602 13.8999L34.5302 13.6599L22.7002 20.5099Z" fill="#1A79D8"/>
<path d="M23.1299 20.76L23.3799 20.65L35.1999 13.8L34.9599 13.9L23.1299 20.76Z" fill="#4C6E92"/>
<path d="M23.3799 20.65L23.9299 20.97L35.7499 14.12L35.1999 13.8L23.3799 20.65Z" fill="#1A79D8"/>
<path d="M23.9302 20.9701L24.1702 21.3601L36.0002 14.5001L35.7502 14.1201L23.9302 20.9701Z" fill="#488DEF"/>
<path d="M24.1699 21.36L24.5999 21.61L36.4299 14.75L35.9999 14.5L24.1699 21.36Z" fill="#1A79D8"/>
<path d="M24.6001 21.6099L24.8501 21.4999L36.6701 14.6499L36.4301 14.7499L24.6001 21.6099Z" fill="#4C6E92"/>
<path d="M24.8501 21.4999L25.4001 21.8199L37.2201 14.9699L36.6701 14.6499L24.8501 21.4999Z" fill="#1A79D8"/>
<path d="M25.3999 21.82L25.6399 22.21L37.4699 15.35L37.2199 14.97L25.3999 21.82Z" fill="#488DEF"/>
<path d="M25.6401 22.2101L26.0702 22.4501L37.9001 15.6001L37.4702 15.3501L25.6401 22.2101Z" fill="#1A79D8"/>
<path d="M26.0698 22.45L26.3198 22.35L38.1398 15.5L37.8998 15.6L26.0698 22.45Z" fill="#4C6E92"/>
<path d="M26.3198 22.35L29.0498 23.93L40.8698 17.07L38.1398 15.5L26.3198 22.35Z" fill="#1A79D8"/>
<path d="M26.0699 22.45L25.6399 22.21L25.3999 21.82L24.8499 21.5L24.5999 21.61L24.1699 21.36L23.9299 20.97L23.3799 20.65L23.1299 20.76L22.6999 20.51L22.4599 20.12L21.9099 19.8L21.6599 19.91L21.2299 19.66L20.9899 19.27L20.4399 18.96L20.1899 19.06L19.7599 18.81L19.5199 18.42L18.9699 18.11L18.7199 18.21L18.2899 17.96L18.0499 17.58L17.4999 17.26L17.2499 17.36L16.8199 17.11L16.5799 16.73L16.0199 16.41L15.7799 16.51L15.3499 16.26L15.0999 15.88L14.5499 15.56L14.3099 15.66L13.8799 15.41L13.6299 15.03L13.0799 14.71L12.8399 14.81L12.4099 14.56L12.1599 14.18L11.6099 13.86L11.3699 13.96L10.9399 13.72L10.6899 13.33L10.1399 13.01L9.89987 13.11L9.46988 12.87L9.21988 12.48L8.66986 12.16L8.41986 12.27L7.99988 12.02L7.74988 11.63L7.19986 11.31L6.94986 11.42L6.51987 11.17L6.27988 10.78L5.72986 10.46L5.47986 10.57L5.04987 10.32L4.80988 9.93001L4.25989 9.62001L4.00989 9.72001L3.57986 9.47001L3.33987 9.08001L0.609863 7.51001V7.70001L3.27988 9.24001L3.51987 9.62001L4.06989 9.94001L4.31989 9.84001L4.74988 10.09L4.98987 10.47L5.53989 10.79L5.78989 10.69L6.21988 10.93L6.45987 11.32L7.00989 11.64L7.25989 11.54L7.68988 11.78L7.92987 12.17L8.47986 12.49L8.72986 12.38L9.15988 12.63L9.39987 13.02L9.95987 13.34L10.1999 13.23L10.6299 13.48L10.8799 13.87L11.4299 14.19L11.6699 14.08L12.0999 14.33L12.3499 14.72L12.8999 15.03L13.1399 14.93L13.5699 15.18L13.8199 15.57L14.3699 15.88L14.6099 15.78L15.0399 16.03L15.2899 16.41L15.8399 16.73L16.0799 16.63L16.5099 16.88L16.7599 17.26L17.3099 17.58L17.5599 17.48L17.9799 17.73L18.2299 18.11L18.7799 18.43L19.0299 18.33L19.4599 18.58L19.6999 18.96L20.2499 19.28L20.4999 19.18L20.9299 19.43L21.1699 19.81L21.7199 20.13L21.9699 20.03L22.3999 20.27L22.6399 20.66L23.1899 20.98L23.4399 20.88L23.8699 21.12L24.1099 21.51L24.6599 21.83L24.9099 21.73L25.3399 21.97L25.5799 22.36L26.1299 22.68L26.3799 22.57L29.0499 24.11V23.93L26.3199 22.35L26.0699 22.45Z" fill="#4F7296"/>
<path d="M29.0498 24.1101L40.8698 17.2601V17.0701L29.0498 23.9301V24.1101Z" fill="#6A95C5"/>
<path d="M35.0098 36.7L40.8597 33.3V30.29L35.0197 33.68L35.0098 36.7Z" fill="#1A79D8"/>
<path d="M34.8398 33.47L35.0699 33.41L40.9198 30.01L40.6798 30.08L34.8398 33.47Z" fill="#507396"/>
<path d="M35.0298 30.63L35.2598 30.96L41.0998 27.56L40.8698 27.23L35.0298 30.63Z" fill="#81B8F1"/>
<path d="M35.25 33.6201L41.1 30.2201V27.5601L35.26 30.9601L35.25 33.6201Z" fill="#1A79D8"/>
<path d="M35.0298 30.63L40.8698 27.23L40.8898 22.79L35.0398 26.19L35.0298 30.63Z" fill="#1A79D8"/>
<path d="M34.8599 25.98L35.0899 25.92L40.9399 22.52L40.6999 22.58L34.8599 25.98Z" fill="#507396"/>
<path d="M35.0498 23.13L35.2798 23.46L41.1298 20.06L40.8898 19.73L35.0498 23.13Z" fill="#81B8F1"/>
<path d="M35.27 26.1301L41.12 22.7301L41.13 20.0601L35.28 23.4601L35.27 26.1301Z" fill="#1A79D8"/>
<path d="M34.8701 20.5499L35.0601 20.6599L40.9001 17.2599L40.7201 17.1599L34.8701 20.5499Z" fill="#74A4D7"/>
<path d="M35.0498 23.13L40.8898 19.73L40.8998 17.26L35.0598 20.66L35.0498 23.13Z" fill="#1A79D8"/>
<path d="M35.0601 20.66L34.8701 20.55V23.13L35.1001 23.46L35.0901 25.92L34.8601 25.98L34.8501 30.63L35.0801 30.96L35.0701 33.41L34.8401 33.47L34.8301 36.59L35.0101 36.7L35.0201 33.68L35.2501 33.62L35.2601 30.96L35.0301 30.63L35.0401 26.19L35.2701 26.13L35.2801 23.46L35.0501 23.13L35.0601 20.66Z" fill="#4F7296"/>
<path d="M29.1499 40.0999L34.9999 36.7099L35.0099 33.6899L29.1599 37.0899L29.1499 40.0999Z" fill="#1A79D8"/>
<path d="M28.98 36.8799L29.21 36.8199L35.06 33.4199L34.83 33.4799L28.98 36.8799Z" fill="#507396"/>
<path d="M29.1699 34.0299L29.3999 34.3599L35.2499 30.9699L35.0199 30.6399L29.1699 34.0299Z" fill="#81B8F1"/>
<path d="M29.3901 37.03L35.2401 33.63L35.2502 30.97L29.4001 34.36L29.3901 37.03Z" fill="#1A79D8"/>
<path d="M29.1699 34.03L35.0199 30.64L35.0299 26.2L29.1799 29.6L29.1699 34.03Z" fill="#1A79D8"/>
<path d="M29 29.3899L29.24 29.3199L35.08 25.9299L34.85 25.9899L29 29.3899Z" fill="#507396"/>
<path d="M29.1899 26.5399L29.4199 26.8699L35.2699 23.4699L35.0399 23.1399L29.1899 26.5399Z" fill="#81B8F1"/>
<path d="M29.4199 29.53L35.2599 26.14L35.2699 23.47L29.4199 26.87V29.53Z" fill="#1A79D8"/>
<path d="M29.02 23.9601L29.2 24.0601L35.04 20.6701L34.86 20.5601L29.02 23.9601Z" fill="#74A4D7"/>
<path d="M29.1899 26.5399L35.0399 23.1399V20.6699L29.1999 24.0599L29.1899 26.5399Z" fill="#1A79D8"/>
<path d="M29.2002 24.06L29.0202 23.96L29.0102 26.54L29.2402 26.87V29.32L29.0002 29.39L28.9902 34.03L29.2202 34.36L29.2102 36.82L28.9802 36.88L28.9702 40L29.1502 40.1L29.1602 37.09L29.3902 37.03L29.4002 34.36L29.1702 34.03L29.1802 29.6L29.4202 29.53V26.87L29.1902 26.54L29.2002 24.06Z" fill="#4F7296"/>
<path d="M35.0801 36.9601L35.1201 36.8701L35.1401 20.8101L35.1001 20.9001L35.0801 36.9601Z" fill="#005266"/>
<path d="M34.8701 20.77L34.8301 20.86L34.9401 20.92L35.1001 20.9L35.1401 20.81L35.0201 20.74L34.8701 20.77Z" fill="#00748D"/>
<path d="M34.9199 36.9799L35.0799 36.9599L35.0999 20.8999L34.9399 20.9199L34.9199 36.9799Z" fill="#006075"/>
<path d="M34.8101 36.9201L34.92 36.9801L34.9401 20.9201L34.83 20.8601L34.8101 36.9201Z" fill="#003D4C"/>
<path d="M35.4302 36.7501L35.4802 36.6601L35.4902 20.6001L35.4502 20.6901L35.4302 36.7501Z" fill="#005266"/>
<path d="M35.2202 20.56L35.1802 20.65L35.3002 20.72L35.4502 20.69L35.4902 20.6L35.3802 20.54L35.2202 20.56Z" fill="#00748D"/>
<path d="M35.2803 36.7699L35.4303 36.7499L35.4503 20.6899L35.3003 20.7199L35.2803 36.7699Z" fill="#006075"/>
<path d="M35.1602 36.7101L35.2802 36.7701L35.3001 20.7201L35.1801 20.6501L35.1602 36.7101Z" fill="#003D4C"/>
<path d="M12.29 0.499951L40.92 17.13L41.02 17.07L12.38 0.449951L12.29 0.499951Z" fill="#009BBF"/>
<path d="M40.9199 17.1301L40.6299 17.3001V17.4101L40.9199 17.2401L41.0199 17.1801V17.0701L40.9199 17.1301Z" fill="#0089AA"/>
<path d="M11.9902 0.669922V0.779922L40.6302 17.4099V17.2999L11.9902 0.669922Z" fill="#00566B"/>
<path d="M11.9902 0.67L40.6302 17.3L40.9202 17.13L12.2903 0.5L11.9902 0.67Z" fill="#0564A5"/>
<path d="M0.490234 7.61011V7.94011L29.1302 24.5801V24.2501L0.490234 7.61011Z" fill="#0564A5"/>
<path d="M0.580078 7.45003L29.2201 24.09L29.5101 23.92L0.870087 7.28003L0.580078 7.45003Z" fill="#0564A5"/>
<path d="M29.5099 23.9199L29.2199 24.0899L29.1299 24.1399V24.2499V24.5799L29.2199 24.5199V24.1899L29.5099 24.0299V23.9199Z" fill="#0089AA"/>
<path d="M0.490234 7.5V7.61L29.1302 24.25V24.14L0.490234 7.5Z" fill="#00566B"/>
<path d="M0.490234 7.49995L29.1302 24.14L29.2202 24.09L0.580231 7.44995L0.490234 7.49995Z" fill="#009BBF"/>
<path d="M29.1501 39.6699L29.0601 39.7199V39.8299V40.1599L29.1501 40.0999V39.7799V39.6699Z" fill="#0089AA"/>
<path d="M29.0599 39.7201L0.419922 23.0801V23.1901V23.5201L29.0599 40.1601V39.8301V39.7201Z" fill="#0564A5"/>
<path d="M0.419922 23.08L29.0599 39.72L29.1499 39.67L0.509949 23.03L0.419922 23.08Z" fill="#009BBF"/>
<path d="M0.310059 7.61L1.48004 8.28L1.66006 8.18L0.490051 7.5L0.310059 7.61Z" fill="#009CC1"/>
<path d="M1.43018 24.2699L1.61017 24.1599L1.66019 8.17993L1.48016 8.27993L1.43018 24.2699Z" fill="#0089AA"/>
<path d="M0.27002 23.5901L1.43002 24.2701L1.48001 8.28011L0.310028 7.61011L0.27002 23.5901Z" fill="#056CC1"/>
<path d="M27.7598 23.4701L28.9398 24.1501L29.1198 24.0501L27.9398 23.3701L27.7598 23.4701Z" fill="#0564A5"/>
<path d="M28.8901 40.25L29.0702 40.15L29.1201 24.05L28.9402 24.15L28.8901 40.25Z" fill="#0564A5"/>
<path d="M27.71 39.5802L28.89 40.2502L28.94 24.1502L27.76 23.4702L27.71 39.5802Z" fill="#0564A5"/>
<path d="M27.7998 23.5701L28.9198 24.2201V24.0201L27.7998 23.3701V23.5701Z" fill="#00576C"/>
<path d="M28.9199 24.22L41.0199 17.19V16.99L28.9199 24.02V24.22Z" fill="#0089AA"/>
<path d="M27.7998 23.3701L28.9198 24.0201L41.0198 16.9901L39.8898 16.3401L27.7998 23.3701Z" fill="#488DEF"/>
<path d="M0.310059 7.5999L1.45004 8.2499V8.0499L0.310059 7.3999V7.5999Z" fill="#00576C"/>
<path d="M1.4502 8.24997L13.6302 1.16997V0.969971L1.4502 8.04997V8.24997Z" fill="#0089AA"/>
<path d="M0.310059 7.40007L1.45004 8.05007L13.6301 0.970068L12.4901 0.320068L0.310059 7.40007Z" fill="#488DEF"/>
<path d="M28.9302 24.02L29.1102 24.12L29.9302 23.66L29.7502 23.55L28.9302 24.02Z" fill="#009CC1"/>
<path d="M29.0601 40.3299L29.8801 39.8599L29.9301 23.6599L29.11 24.1199L29.0601 40.3299Z" fill="#056CC1"/>
<path d="M28.8799 40.22L29.0599 40.33L29.1099 24.12L28.9299 24.02L28.8799 40.22Z" fill="#00576C"/>
<path d="M40.2002 17.47L40.3802 17.57L41.1902 17.1L41.0102 16.99L40.2002 17.47Z" fill="#009CC1"/>
<path d="M40.3301 33.7701L41.1501 33.3001L41.1901 17.1001L40.3801 17.5701L40.3301 33.7701Z" fill="#056CC1"/>
<path d="M40.1499 33.67L40.3299 33.77L40.3799 17.57L40.1999 17.47L40.1499 33.67Z" fill="#00576C"/>
<path d="M0.580078 23.5899C0.590078 23.5999 0.610087 23.5999 0.620087 23.6099L0.890076 23.4499C0.880076 23.4399 0.860098 23.4399 0.850098 23.4299L0.580078 23.5899Z" fill="#0091B3"/>
<path d="M0.620117 23.61C0.630117 23.62 0.650126 23.62 0.660126 23.63L0.930115 23.47C0.920115 23.47 0.900106 23.46 0.890106 23.45L0.620117 23.61Z" fill="#0087A6"/>
<path d="M0.660156 23.63C0.670156 23.64 0.690134 23.64 0.700134 23.64L0.970154 23.48C0.960154 23.48 0.940145 23.47 0.930145 23.47L0.660156 23.63Z" fill="#007E9B"/>
<path d="M0.700195 23.64C0.720195 23.64 0.730214 23.65 0.750214 23.65L1.0202 23.49C1.0102 23.49 0.990215 23.49 0.970215 23.48L0.700195 23.64Z" fill="#00738C"/>
<path d="M0.75 23.65C0.77 23.65 0.789988 23.65 0.799988 23.65L1.07001 23.49C1.05001 23.49 1.03999 23.49 1.01999 23.49L0.75 23.65Z" fill="#006981"/>
<path d="M0.800293 23.65C0.830293 23.65 0.85031 23.64 0.88031 23.62L1.1503 23.46C1.1303 23.47 1.10031 23.48 1.07031 23.49L0.800293 23.65Z" fill="#005F74"/>
<path d="M0.189941 22.72L0.45993 22.5599C0.47993 22.5099 0.509927 22.47 0.549927 22.45L0.279938 22.61C0.249938 22.63 0.209941 22.67 0.189941 22.72Z" fill="#005F74"/>
<path d="M0.169922 22.77L0.439941 22.61C0.439941 22.59 0.44993 22.57 0.45993 22.55L0.189941 22.71C0.179941 22.73 0.179922 22.75 0.169922 22.77Z" fill="#006981"/>
<path d="M0.169922 22.8199L0.439941 22.6599C0.439941 22.6399 0.439921 22.6299 0.449921 22.6099L0.179932 22.7699C0.169932 22.7899 0.169922 22.7999 0.169922 22.8199Z" fill="#00738C"/>
<path d="M0.160156 22.8699L0.430145 22.7099C0.430145 22.6899 0.430145 22.6799 0.430145 22.6599L0.160156 22.8199C0.160156 22.8399 0.160156 22.8499 0.160156 22.8699Z" fill="#007E9B"/>
<path d="M0.430145 22.72L0.160156 22.88C0.160156 22.9 0.160156 22.91 0.160156 22.93L0.430145 22.77C0.430145 22.75 0.430145 22.73 0.430145 22.72Z" fill="#0087A6"/>
<path d="M0.169922 22.92C0.169922 22.94 0.169932 22.95 0.179932 22.97L0.449921 22.81C0.449921 22.79 0.449941 22.78 0.439941 22.76L0.169922 22.92Z" fill="#0091B3"/>
<path d="M0.169922 22.9701C0.169922 22.9901 0.179932 23.0101 0.179932 23.0301L0.449921 22.8701C0.449921 22.8501 0.439941 22.8301 0.439941 22.8101L0.169922 22.9701Z" fill="#009BBE"/>
<path d="M0.180176 23.0299C0.180176 23.0499 0.190165 23.0699 0.200165 23.0899L0.470184 22.9299C0.460184 22.9099 0.460165 22.8899 0.450165 22.8699L0.180176 23.0299Z" fill="#00A6CC"/>
<path d="M0.200195 23.0899C0.210195 23.1199 0.220194 23.1399 0.230194 23.1699L0.500214 23.0099C0.490214 22.9799 0.480215 22.9599 0.470215 22.9299L0.200195 23.0899Z" fill="#00B0D7"/>
<path d="M0.22998 23.17C0.27998 23.28 0.339993 23.39 0.429993 23.47L0.699982 23.31C0.619982 23.23 0.55 23.12 0.5 23.01L0.22998 23.17Z" fill="white"/>
<path d="M0.419922 23.4701C0.439922 23.4901 0.459919 23.5101 0.479919 23.5201L0.749939 23.3601C0.729939 23.3401 0.709941 23.3201 0.689941 23.3101L0.419922 23.4701Z" fill="#00B0D7"/>
<path d="M0.47998 23.5299C0.49998 23.5399 0.509999 23.5599 0.529999 23.5699L0.799988 23.4099C0.779988 23.3999 0.77 23.3899 0.75 23.3699L0.47998 23.5299Z" fill="#00A6CC"/>
<path d="M0.530273 23.5599C0.540273 23.5699 0.560282 23.5799 0.570282 23.5899L0.840271 23.4299C0.820271 23.4199 0.810262 23.4099 0.800262 23.3999L0.530273 23.5599Z" fill="#009BBE"/>
<path d="M0.580078 23.5899L0.850098 23.4399H0.840088L0.580078 23.5899Z" fill="#0091B3"/>
<path d="M0 23.7499L1.16998 24.4199V22.8299L0 22.1599V23.7499ZM0.579987 22.6299C0.809987 22.7599 1 23.0899 1 23.3499C1 23.6199 0.809987 23.7199 0.579987 23.5899C0.349987 23.4599 0.160004 23.1299 0.160004 22.8699C0.160004 22.6099 0.349987 22.4999 0.579987 22.6299Z" fill="#056CC1"/>
<path d="M0 22.15L1.16998 22.83L1.42999 22.67L0.269989 22L0 22.15Z" fill="#009DC2"/>
<path d="M1.16016 24.4199L1.43015 24.2599V22.6699L1.17014 22.8299L1.16016 24.4199Z" fill="#008BAC"/>
<path d="M28.21 39.65C28.22 39.66 28.24 39.66 28.25 39.67L28.52 39.51C28.51 39.5 28.4899 39.5 28.4799 39.49L28.21 39.65Z" fill="#0091B3"/>
<path d="M28.25 39.67C28.26 39.68 28.28 39.68 28.29 39.69L28.56 39.53C28.55 39.53 28.53 39.52 28.52 39.51L28.25 39.67Z" fill="#0087A6"/>
<path d="M28.29 39.68C28.3 39.69 28.32 39.69 28.33 39.69L28.6 39.53C28.59 39.53 28.57 39.52 28.56 39.52L28.29 39.68Z" fill="#007E9B"/>
<path d="M28.3301 39.7C28.3501 39.7 28.3601 39.71 28.3801 39.71L28.6501 39.55C28.6401 39.55 28.6201 39.55 28.6001 39.54L28.3301 39.7Z" fill="#00738C"/>
<path d="M28.3799 39.7C28.3999 39.7 28.4199 39.7 28.4299 39.7L28.6999 39.54C28.6799 39.54 28.6699 39.54 28.6499 39.54L28.3799 39.7Z" fill="#006981"/>
<path d="M28.4302 39.7C28.4602 39.7 28.4802 39.69 28.5102 39.67L28.7802 39.51C28.7602 39.52 28.7302 39.53 28.7002 39.54L28.4302 39.7Z" fill="#005F74"/>
<path d="M27.8198 38.77L28.0898 38.61C28.1098 38.56 28.1398 38.52 28.1798 38.5L27.9098 38.66C27.8698 38.68 27.8398 38.72 27.8198 38.77Z" fill="#005F74"/>
<path d="M27.7998 38.8201L28.0698 38.6601C28.0698 38.6401 28.0798 38.6201 28.0898 38.6001L27.8198 38.7601C27.8098 38.7901 27.8098 38.8001 27.7998 38.8201Z" fill="#006981"/>
<path d="M27.79 38.8699L28.06 38.7099C28.06 38.6899 28.06 38.6799 28.07 38.6599L27.8 38.8199C27.8 38.8399 27.8 38.8599 27.79 38.8699Z" fill="#00738C"/>
<path d="M27.79 38.92L28.06 38.76C28.06 38.74 28.06 38.73 28.06 38.71L27.79 38.87C27.79 38.89 27.79 38.91 27.79 38.92Z" fill="#007E9B"/>
<path d="M28.06 38.77L27.79 38.93C27.79 38.95 27.79 38.96 27.79 38.98L28.06 38.82C28.06 38.8 28.06 38.79 28.06 38.77Z" fill="#0087A6"/>
<path d="M27.79 38.9701C27.79 38.9901 27.79 39.0001 27.8 39.0201L28.07 38.8601C28.07 38.8401 28.07 38.8301 28.06 38.8101L27.79 38.9701Z" fill="#0091B3"/>
<path d="M27.7998 39.0301C27.7998 39.0501 27.8098 39.0701 27.8098 39.0901L28.0798 38.9301C28.0798 38.9101 28.0698 38.8901 28.0698 38.8701L27.7998 39.0301Z" fill="#009BBE"/>
<path d="M27.8101 39.0799C27.8101 39.0999 27.82 39.1199 27.83 39.1399L28.1001 38.9799C28.0901 38.9599 28.09 38.9399 28.08 38.9199L27.8101 39.0799Z" fill="#00A6CC"/>
<path d="M27.8301 39.14C27.8401 39.17 27.8501 39.19 27.8601 39.22L28.1301 39.06C28.1201 39.03 28.1101 39.01 28.1001 38.98L27.8301 39.14Z" fill="#00B0D7"/>
<path d="M27.8599 39.2201C27.9099 39.3301 27.9799 39.4401 28.0599 39.5201L28.3299 39.3601C28.2499 39.2801 28.1799 39.1701 28.1299 39.0601L27.8599 39.2201Z" fill="white"/>
<path d="M28.0498 39.5201C28.0698 39.5401 28.0898 39.5601 28.1098 39.5701L28.3798 39.4101C28.3598 39.3901 28.3398 39.3701 28.3198 39.3601L28.0498 39.5201Z" fill="#00B0D7"/>
<path d="M28.1099 39.5799C28.1299 39.5899 28.1399 39.6099 28.1599 39.6199L28.4299 39.4599C28.4099 39.4499 28.3999 39.4399 28.3799 39.4199L28.1099 39.5799Z" fill="#00A6CC"/>
<path d="M28.1602 39.62C28.1702 39.63 28.1901 39.64 28.2001 39.65L28.4702 39.49C28.4502 39.48 28.4401 39.47 28.4301 39.46L28.1602 39.62Z" fill="#009BBE"/>
<path d="M28.2002 39.64L28.2102 39.65L28.4802 39.49H28.4702L28.2002 39.64Z" fill="#0091B3"/>
<path d="M27.6201 39.8L28.7901 40.47V38.88L27.6201 38.21V39.8ZM28.2101 38.69C28.4401 38.82 28.6301 39.15 28.6301 39.41C28.6301 39.68 28.4401 39.78 28.2101 39.65C27.9801 39.52 27.7901 39.19 27.7901 38.93C27.7901 38.66 27.9801 38.55 28.2101 38.69Z" fill="#0564A5"/>
<path d="M27.6299 38.21L28.7899 38.88L29.0599 38.72L27.8999 38.05L27.6299 38.21Z" fill="#056CC1"/>
<path d="M28.79 40.47L29.06 40.32V38.72L28.79 38.88V40.47Z" fill="#056CC1"/>
<path d="M28.2598 25.0499C28.2698 25.0599 28.2897 25.0599 28.2997 25.0699L28.5698 24.9099C28.5598 24.8999 28.5398 24.8999 28.5298 24.8899L28.2598 25.0499Z" fill="#0091B3"/>
<path d="M28.2998 25.0699C28.3098 25.0799 28.3298 25.0799 28.3398 25.0899L28.6098 24.9299C28.5998 24.9299 28.5798 24.9199 28.5698 24.9099L28.2998 25.0699Z" fill="#0087A6"/>
<path d="M28.3398 25.0899C28.3498 25.0999 28.3699 25.0999 28.3799 25.0999L28.6498 24.9399C28.6398 24.9399 28.6198 24.9299 28.6098 24.9299L28.3398 25.0899Z" fill="#007E9B"/>
<path d="M28.3896 25.0999C28.4096 25.0999 28.4197 25.1099 28.4397 25.1099L28.7097 24.9499C28.6997 24.9499 28.6797 24.9499 28.6597 24.9399L28.3896 25.0999Z" fill="#00738C"/>
<path d="M28.4297 25.11C28.4497 25.11 28.4697 25.11 28.4797 25.11L28.7497 24.95C28.7297 24.95 28.7197 24.95 28.6997 24.95L28.4297 25.11Z" fill="#006981"/>
<path d="M28.4795 25.0999C28.5095 25.0999 28.5295 25.0899 28.5595 25.0699L28.8295 24.9099C28.8095 24.9199 28.7795 24.9299 28.7495 24.9399L28.4795 25.0999Z" fill="#005F74"/>
<path d="M27.8799 24.1699L28.1499 24.0099C28.1699 23.9599 28.1999 23.9199 28.2399 23.8999L27.9699 24.0599C27.9299 24.0799 27.8999 24.1199 27.8799 24.1699Z" fill="#005F74"/>
<path d="M27.8599 24.23L28.1299 24.07C28.1299 24.05 28.1399 24.03 28.1499 24.01L27.8799 24.17C27.8699 24.19 27.8599 24.21 27.8599 24.23Z" fill="#006981"/>
<path d="M27.8496 24.2798L28.1196 24.1198C28.1196 24.0998 28.1196 24.0898 28.1296 24.0698L27.8596 24.2298C27.8496 24.2398 27.8496 24.2598 27.8496 24.2798Z" fill="#00738C"/>
<path d="M27.8496 24.3299L28.1196 24.1699C28.1196 24.1499 28.1196 24.1399 28.1196 24.1199L27.8496 24.2799C27.8496 24.2899 27.8496 24.3099 27.8496 24.3299Z" fill="#007E9B"/>
<path d="M28.1098 24.1699L27.8398 24.3299C27.8398 24.3499 27.8398 24.3599 27.8398 24.3799L28.1098 24.2199C28.1198 24.1999 28.1098 24.1899 28.1098 24.1699Z" fill="#0087A6"/>
<path d="M27.8496 24.38C27.8496 24.4 27.8496 24.41 27.8596 24.43L28.1296 24.27C28.1296 24.25 28.1296 24.24 28.1196 24.22L27.8496 24.38Z" fill="#0091B3"/>
<path d="M27.8496 24.43C27.8496 24.45 27.8596 24.47 27.8596 24.49L28.1296 24.33C28.1296 24.31 28.1196 24.29 28.1196 24.27L27.8496 24.43Z" fill="#009BBE"/>
<path d="M27.8696 24.4798C27.8696 24.4998 27.8796 24.5198 27.8896 24.5398L28.1596 24.3798C28.1496 24.3598 28.1496 24.3398 28.1396 24.3198L27.8696 24.4798Z" fill="#00A6CC"/>
<path d="M27.8799 24.5499C27.8899 24.5799 27.8999 24.5999 27.9099 24.6299L28.1799 24.4699C28.1699 24.4399 28.1599 24.4199 28.1499 24.3899L27.8799 24.5499Z" fill="#00B0D7"/>
<path d="M27.9097 24.62C27.9597 24.73 28.0196 24.84 28.1096 24.92L28.3797 24.76C28.2997 24.68 28.2297 24.57 28.1797 24.46L27.9097 24.62Z" fill="white"/>
<path d="M28.1099 24.93C28.1299 24.95 28.1499 24.97 28.1699 24.98L28.4399 24.82C28.4199 24.8 28.3999 24.78 28.3799 24.77L28.1099 24.93Z" fill="#00B0D7"/>
<path d="M28.1699 24.9798C28.1899 24.9898 28.1999 25.0098 28.2199 25.0198L28.4899 24.8598C28.4699 24.8498 28.4599 24.8398 28.4399 24.8198L28.1699 24.9798Z" fill="#00A6CC"/>
<path d="M28.21 25.0199C28.22 25.0299 28.24 25.0399 28.25 25.0499L28.52 24.8899C28.5 24.8799 28.4899 24.8699 28.4799 24.8599L28.21 25.0199Z" fill="#009BBE"/>
<path d="M28.2598 25.0499L28.5298 24.8899L28.2598 25.0499Z" fill="#0091B3"/>
<path d="M27.6802 25.2001L28.8502 25.8701V24.2801L27.6802 23.6101V25.2001ZM28.2702 24.0901C28.5002 24.2201 28.6902 24.5501 28.6902 24.8101C28.6902 25.0801 28.5002 25.1801 28.2702 25.0501C28.0402 24.9201 27.8502 24.5901 27.8502 24.3301C27.8502 24.0601 28.0402 23.9601 28.2702 24.0901Z" fill="#065A89"/>
<path d="M27.6802 23.61L28.8502 24.28L29.1202 24.12L27.9502 23.45L27.6802 23.61Z" fill="#009DC2"/>
<path d="M28.8398 25.8701L29.1098 25.7201L29.1198 24.1201L28.8499 24.2801L28.8398 25.8701Z" fill="#0564A5"/>
<path d="M0.629883 8.99008C0.639883 9.00008 0.659861 9.00008 0.669861 9.01008L0.93988 8.85008C0.92988 8.84008 0.909872 8.84008 0.899872 8.83008L0.629883 8.99008Z" fill="#0091B3"/>
<path d="M0.659668 9.0101C0.669668 9.0201 0.689646 9.0201 0.699646 9.0301L0.969666 8.8701C0.959666 8.8701 0.939657 8.8601 0.929657 8.8501L0.659668 9.0101Z" fill="#0087A6"/>
<path d="M0.709961 9.03012C0.719961 9.04012 0.739969 9.04012 0.749969 9.04012L1.01996 8.88012C1.00996 8.88012 0.98995 8.87012 0.97995 8.87012L0.709961 9.03012Z" fill="#007E9B"/>
<path d="M0.75 9.04013C0.77 9.04013 0.779988 9.05013 0.799988 9.05013L1.07001 8.89013C1.06001 8.89013 1.03999 8.89013 1.01999 8.88013L0.75 9.04013Z" fill="#00738C"/>
<path d="M0.790039 9.05014C0.810039 9.05014 0.830027 9.05014 0.840027 9.05014L1.11002 8.89014C1.09002 8.89014 1.08003 8.89014 1.06003 8.89014L0.790039 9.05014Z" fill="#006981"/>
<path d="M0.850098 9.05011C0.880098 9.05011 0.900084 9.04011 0.930084 9.02011L1.20007 8.86011C1.18007 8.87011 1.15009 8.88011 1.12009 8.89011L0.850098 9.05011Z" fill="#005F74"/>
<path d="M0.239746 8.11009L0.509766 7.95009C0.529766 7.90009 0.559762 7.86009 0.599762 7.84009L0.329742 8.00009C0.289742 8.03009 0.259746 8.06009 0.239746 8.11009Z" fill="#005F74"/>
<path d="M0.219727 8.17019L0.489716 8.01019C0.489716 7.99019 0.499735 7.9702 0.509735 7.9502L0.239716 8.1102C0.229716 8.1302 0.219727 8.15019 0.219727 8.17019Z" fill="#006981"/>
<path d="M0.209961 8.22001L0.47995 8.06001C0.47995 8.04001 0.47996 8.03001 0.48996 8.01001L0.219971 8.17001C0.219971 8.19001 0.209961 8.20001 0.209961 8.22001Z" fill="#00738C"/>
<path d="M0.209961 8.27006L0.47995 8.11006C0.47995 8.09006 0.47995 8.08006 0.47995 8.06006L0.209961 8.22006C0.209961 8.24006 0.209961 8.25006 0.209961 8.27006Z" fill="#007E9B"/>
<path d="M0.47995 8.11011L0.209961 8.27011C0.209961 8.29011 0.209961 8.30011 0.209961 8.32011L0.47995 8.16011C0.47995 8.15011 0.47995 8.13011 0.47995 8.11011Z" fill="#0087A6"/>
<path d="M0.209961 8.32016C0.209961 8.34016 0.209971 8.35016 0.219971 8.37016L0.48996 8.21016C0.48996 8.19016 0.48995 8.18016 0.47995 8.16016L0.209961 8.32016Z" fill="#0091B3"/>
<path d="M0.219727 8.37021C0.219727 8.39021 0.229706 8.41021 0.229706 8.43021L0.499725 8.27021C0.499725 8.25021 0.489716 8.23021 0.489716 8.21021L0.219727 8.37021Z" fill="#009BBE"/>
<path d="M0.22998 8.43002C0.22998 8.45002 0.24 8.47002 0.25 8.49002L0.519989 8.33002C0.509989 8.31002 0.51 8.29002 0.5 8.27002L0.22998 8.43002Z" fill="#00A6CC"/>
<path d="M0.25 8.49008C0.26 8.52008 0.269999 8.54008 0.279999 8.57008L0.549988 8.41008C0.539988 8.38008 0.529989 8.36008 0.519989 8.33008L0.25 8.49008Z" fill="#00B0D7"/>
<path d="M0.27002 8.57016C0.32002 8.68016 0.390032 8.79016 0.470032 8.87016L0.740021 8.71016C0.660021 8.63016 0.590039 8.52016 0.540039 8.41016L0.27002 8.57016Z" fill="white"/>
<path d="M0.469727 8.87021C0.489727 8.89021 0.509724 8.91021 0.529724 8.92021L0.799713 8.76021C0.779713 8.74021 0.759716 8.72021 0.739716 8.71021L0.469727 8.87021Z" fill="#00B0D7"/>
<path d="M0.529785 8.92001C0.549785 8.93001 0.559773 8.95001 0.579773 8.96001L0.849792 8.80001C0.829792 8.79001 0.819774 8.78001 0.799774 8.76001L0.529785 8.92001Z" fill="#00A6CC"/>
<path d="M0.580078 8.96005C0.590078 8.97005 0.610087 8.98005 0.620087 8.99005L0.890076 8.83005C0.870076 8.82005 0.860098 8.81005 0.850098 8.80005L0.580078 8.96005Z" fill="#009BBE"/>
<path d="M0.620117 8.99008H0.630127L0.890106 8.84008V8.83008L0.620117 8.99008Z" fill="#0091B3"/>
<path d="M0.0400391 9.15006L1.21002 9.82006V8.23006L0.0400391 7.56006V9.15006ZM0.630035 8.03006C0.860035 8.16006 1.05002 8.49006 1.05002 8.75006C1.05002 9.02006 0.860035 9.12006 0.630035 8.99006C0.400035 8.86006 0.210022 8.53006 0.210022 8.27006C0.210022 8.01006 0.400035 7.90006 0.630035 8.03006Z" fill="#0564A5"/>
<path d="M0.0498047 7.5499L1.20981 8.2199L1.4798 8.0699L0.309814 7.3999L0.0498047 7.5499Z" fill="#009DC2"/>
<path d="M1.20996 9.82007L1.46997 9.66007L1.47995 8.07007L1.20996 8.22007V9.82007Z" fill="#008BAC"/>
<path d="M1.55963 7.03997C1.50963 7.00997 1.43963 6.97997 1.36963 6.96997V7.27997C1.43963 7.29997 1.49963 7.31997 1.55963 7.34997C1.66963 7.41997 1.72961 7.49997 1.72961 7.58997V7.27997C1.73961 7.18997 1.67963 7.10997 1.55963 7.03997Z" fill="#006A83"/>
<path d="M1.22998 7.24994C1.27998 7.24994 1.33 7.25994 1.37 7.26994V6.95994C1.32 6.94994 1.27998 6.93994 1.22998 6.93994V7.24994Z" fill="#00738C"/>
<path d="M1.08984 6.93994V7.24994C1.13984 7.24994 1.18984 7.24994 1.23984 7.24994V6.93994C1.18984 6.93994 1.13984 6.93994 1.08984 6.93994Z" fill="#007C98"/>
<path d="M0.869629 7.28994C0.939629 7.26994 1.00963 7.24994 1.08963 7.24994V6.93994C1.00963 6.93994 0.939629 6.95994 0.869629 6.97994V7.28994Z" fill="#0084A4"/>
<path d="M0.72998 7.03998V7.34998C0.72998 7.34998 0.72999 7.34998 0.73999 7.34998C0.77999 7.32998 0.819995 7.30998 0.869995 7.28998V6.97998C0.819995 6.99998 0.77998 7.01998 0.72998 7.03998C0.73998 7.03998 0.73998 7.03998 0.72998 7.03998Z" fill="#008DAD"/>
<path d="M0.609863 7.16005V7.47005C0.639863 7.43005 0.679858 7.39005 0.729858 7.36005V7.05005C0.679858 7.08005 0.639863 7.11005 0.609863 7.16005Z" fill="#0084A4"/>
<path d="M0.57959 7.5399C0.58959 7.5099 0.599598 7.4799 0.619598 7.4599V7.1499C0.599598 7.1799 0.58959 7.1999 0.57959 7.2299V7.5399Z" fill="#007C98"/>
<path d="M0.0498047 7.25997L1.1998 7.91997L2.55981 7.12997L1.40982 6.46997L0.0498047 7.25997ZM1.56982 7.51997C1.33982 7.64997 0.979817 7.64997 0.749817 7.51997C0.519817 7.38997 0.519817 7.17997 0.749817 7.03997C0.979817 6.90997 1.33982 6.90997 1.56982 7.03997C1.78982 7.16997 1.78982 7.37997 1.56982 7.51997Z" fill="#1A79D8"/>
<path d="M1.2002 8.21988L2.5502 7.42988L2.56021 7.12988L1.2002 7.91988V8.21988Z" fill="#0091B3"/>
<path d="M0.0498047 7.56001L1.1998 8.22001V7.92001L0.0498047 7.26001V7.56001Z" fill="#056CC1"/>
<path d="M12.9402 0.410088C12.8902 0.380088 12.8203 0.350088 12.7603 0.340088V0.640088C12.8303 0.660088 12.8902 0.680088 12.9402 0.710088C13.0502 0.780088 13.1102 0.860088 13.1102 0.950088V0.650088C13.1102 0.560088 13.0502 0.470088 12.9402 0.410088Z" fill="#006A83"/>
<path d="M12.6104 0.620068C12.6604 0.620068 12.7104 0.630068 12.7504 0.640068V0.340068C12.7004 0.330068 12.6604 0.320068 12.6104 0.320068V0.620068Z" fill="#00738C"/>
<path d="M12.46 0.310059V0.610059C12.51 0.610059 12.56 0.610059 12.61 0.610059V0.310059C12.56 0.310059 12.51 0.310059 12.46 0.310059Z" fill="#007C98"/>
<path d="M12.2402 0.660068C12.3102 0.640068 12.3802 0.620068 12.4602 0.620068V0.320068C12.3902 0.320068 12.3102 0.340068 12.2402 0.360068V0.660068Z" fill="#0084A4"/>
<path d="M12.1104 0.410098V0.710098C12.1104 0.710098 12.1104 0.710098 12.1204 0.710098C12.1604 0.690098 12.2004 0.670098 12.2504 0.650098V0.350098C12.2004 0.370098 12.1604 0.390098 12.1104 0.410098Z" fill="#008DAD"/>
<path d="M11.9902 0.520156V0.820156C12.0202 0.780156 12.0602 0.740156 12.1102 0.710156V0.410156C12.0602 0.450156 12.0202 0.480156 11.9902 0.520156Z" fill="#0084A4"/>
<path d="M11.9502 0.910029C11.9602 0.880029 11.9702 0.850029 11.9902 0.830029V0.530029C11.9702 0.560029 11.9602 0.580029 11.9502 0.610029V0.910029Z" fill="#007C98"/>
<path d="M11.1299 0.79L12.2699 1.45L13.6199 0.66L12.4799 0L11.1299 0.79ZM12.9399 0.41C13.1699 0.54 13.1699 0.75 12.9399 0.88C12.7099 1.01 12.3499 1.01 12.1199 0.88C11.8899 0.75 11.8899 0.54 12.1199 0.41C12.3399 0.28 12.7099 0.28 12.9399 0.41Z" fill="#00A0C5"/>
<path d="M12.2798 1.75992L13.6298 0.969922V0.669922L12.2798 1.45992V1.75992Z" fill="#0091B3"/>
<path d="M11.1299 1.10004L12.2799 1.76004V1.46004L11.1299 0.790039V1.10004Z" fill="#006880"/>
<path d="M29.1997 23.09C29.1497 23.06 29.0798 23.03 29.0098 23.02V23.33C29.0798 23.35 29.1397 23.37 29.1997 23.4C29.3097 23.47 29.3698 23.55 29.3698 23.64V23.33C29.3698 23.25 29.3097 23.16 29.1997 23.09Z" fill="#006A83"/>
<path d="M28.8701 23.3C28.9201 23.3 28.9701 23.31 29.0101 23.32V23.01C28.9601 23 28.9201 22.99 28.8701 22.99V23.3Z" fill="#00738C"/>
<path d="M28.7197 22.9999V23.3099C28.7697 23.3099 28.8197 23.3099 28.8697 23.3099V22.9999C28.8197 22.9899 28.7697 22.9899 28.7197 22.9999Z" fill="#007C98"/>
<path d="M28.5 23.34C28.57 23.32 28.64 23.3 28.72 23.3V22.99C28.64 22.99 28.57 23.01 28.5 23.03V23.34Z" fill="#0084A4"/>
<path d="M28.3701 23.1V23.41C28.3701 23.41 28.3701 23.41 28.3801 23.41C28.4201 23.39 28.4601 23.37 28.5101 23.35V23.04C28.4601 23.05 28.4201 23.07 28.3701 23.1Z" fill="#008DAD"/>
<path d="M28.25 23.2101V23.5201C28.28 23.4801 28.32 23.4401 28.37 23.4101V23.1001C28.32 23.1301 28.27 23.1701 28.25 23.2101Z" fill="#0084A4"/>
<path d="M28.21 23.6C28.22 23.57 28.23 23.54 28.25 23.52V23.21C28.23 23.24 28.22 23.26 28.21 23.29V23.6Z" fill="#007C98"/>
<path d="M27.6802 23.31L28.8302 23.97L30.1902 23.18L29.0402 22.52L27.6802 23.31ZM29.2002 23.57C28.9702 23.7 28.6102 23.7 28.3802 23.57C28.1502 23.44 28.1502 23.23 28.3802 23.09C28.6102 22.96 28.9702 22.96 29.2002 23.09C29.4302 23.23 29.4302 23.44 29.2002 23.57Z" fill="#0564A5"/>
<path d="M28.8301 24.2799L30.1901 23.4899V23.1799L28.8301 23.9699V24.2799Z" fill="#056CC1"/>
<path d="M27.6802 23.6201L28.8302 24.2801V23.9701L27.6802 23.3101V23.6201Z" fill="#074C72"/>
<path d="M40.4998 16.4899C40.4498 16.4599 40.3798 16.4299 40.3198 16.4199V16.7199C40.3898 16.7399 40.4498 16.7599 40.4998 16.7899C40.6098 16.8599 40.6698 16.9399 40.6698 17.0299V16.7299C40.6798 16.6399 40.6198 16.5499 40.4998 16.4899Z" fill="#006A83"/>
<path d="M40.1802 16.6999C40.2302 16.6999 40.2802 16.7099 40.3202 16.7199V16.4199C40.2702 16.4099 40.2302 16.3999 40.1802 16.3999V16.6999Z" fill="#00738C"/>
<path d="M40.0303 16.3899V16.6899C40.0803 16.6899 40.1303 16.6899 40.1803 16.6899V16.3899C40.1303 16.3899 40.0803 16.3899 40.0303 16.3899Z" fill="#007C98"/>
<path d="M39.8101 16.7399C39.8801 16.7199 39.9501 16.6999 40.0301 16.6999V16.3999C39.9601 16.3999 39.8801 16.4199 39.8101 16.4399V16.7399Z" fill="#0084A4"/>
<path d="M39.6802 16.4899V16.7899C39.6802 16.7899 39.6802 16.7899 39.6902 16.7899C39.7302 16.7699 39.7702 16.7499 39.8202 16.7299V16.4299C39.7702 16.4499 39.7202 16.4699 39.6802 16.4899Z" fill="#008DAD"/>
<path d="M39.5601 16.6V16.9C39.5901 16.86 39.6301 16.82 39.6801 16.79V16.49C39.6201 16.53 39.5801 16.56 39.5601 16.6Z" fill="#0084A4"/>
<path d="M39.52 16.9899C39.53 16.9599 39.54 16.9299 39.56 16.9099V16.6099C39.54 16.6399 39.53 16.6599 39.52 16.6899V16.9899Z" fill="#007C98"/>
<path d="M38.7002 16.8701L39.8402 17.5301L41.1902 16.7401L40.0502 16.0801L38.7002 16.8701ZM40.5002 16.4901C40.7302 16.6201 40.7302 16.8301 40.5002 16.9601C40.2702 17.0901 39.9102 17.0901 39.6802 16.9601C39.4502 16.8301 39.4502 16.6201 39.6802 16.4901C39.9102 16.3601 40.2802 16.3601 40.5002 16.4901Z" fill="#0564A5"/>
<path d="M39.8398 17.84L41.1998 17.05V16.75L39.8499 17.53L39.8398 17.84Z" fill="#056CC1"/>
<path d="M38.7002 17.1801L39.8402 17.8401L39.8502 17.5301L38.7002 16.8701V17.1801Z" fill="#074C72"/>
</svg>
