<svg width="63" height="42" viewBox="0 0 63 42" fill="none" xmlns="http://www.w3.org/2000/svg">
<path d="M0 23.9601V23.1301L34.57 7.1001L3.39999 25.9201L0 23.9601Z" fill="#056CC1"/>
<path d="M3.39999 25.0899L0 23.1299L31.17 5.12988L34.57 7.09988L3.39999 25.0899Z" fill="#488DEF"/>
<path d="M3.3999 25.9201V25.0901L34.5699 7.1001V7.9301L3.3999 25.9201Z" fill="#0564A5"/>
<path d="M6.21017 19.78V23.25L3.21017 24.98L0.200195 19.78H6.21017Z" fill="#0564A5"/>
<path d="M3.21017 21.52L0.200195 19.78L3.21017 18.04L6.21017 19.78L3.21017 21.52Z" fill="#F7DFAF"/>
<path d="M3.21017 21.52V24.98L0.200195 23.25V19.78L3.21017 21.52Z" fill="#056CC1"/>
<path d="M20.3 11.6499V15.1199L17.29 16.8499L14.29 11.6499H20.3Z" fill="#AC8854"/>
<path d="M17.29 13.3799L14.29 11.6499L17.29 9.90991L20.3 11.6499L17.29 13.3799Z" fill="#F7DFAF"/>
<path d="M17.29 13.3799V16.8499L14.29 15.1199V11.6499L17.29 13.3799Z" fill="#0564A5"/>
<path d="M34.3801 3.52002V6.99002L31.3801 8.72002L28.3701 3.52002H34.3801Z" fill="#AC8854"/>
<path d="M31.3801 5.25003L28.3701 3.52003L31.3801 1.78003L34.3801 3.52003L31.3801 5.25003Z" fill="#F7DFAF"/>
<path d="M31.3801 5.25002V8.72002L28.3701 6.99002V3.52002L31.3801 5.25002Z" fill="#056CC1"/>
<path d="M13.8901 31.9801V31.1501L48.4701 15.1201L17.3001 33.9401L13.8901 31.9801Z" fill="#056CC1"/>
<path d="M17.3001 33.1099L13.8901 31.1499L45.0601 13.1499L48.4701 15.1199L17.3001 33.1099Z" fill="#488DEF"/>
<path d="M17.2998 33.9401V33.1101L48.4698 15.1201V15.9501L17.2998 33.9401Z" fill="#0564A5"/>
<path d="M20.1099 27.8V31.2701L17.0999 33L14.0898 27.8H20.1099Z" fill="#0564A5"/>
<path d="M17.0999 29.5301L14.0898 27.8001L17.0999 26.0601L20.1099 27.8001L17.0999 29.5301Z" fill="#F7DFAF"/>
<path d="M17.0999 29.5301V33L14.0898 31.2701V27.8L17.0999 29.5301Z" fill="#056CC1"/>
<path d="M34.1902 19.6699V23.1399L31.1802 24.8699L28.1802 19.6699H34.1902Z" fill="#0564A5"/>
<path d="M31.1802 21.3999L28.1802 19.6699L31.1802 17.9299L34.1902 19.6699L31.1802 21.3999Z" fill="#0564A5"/>
<path d="M31.1802 21.3999V24.8699L28.1802 23.1399V19.6699L31.1802 21.3999Z" fill="#0564A5"/>
<path d="M48.2697 11.54V15.01L45.2697 16.74L42.2598 11.54H48.2697Z" fill="#AC8854"/>
<path d="M45.2697 13.27L42.2598 11.54L45.2697 9.80005L48.2697 11.54L45.2697 13.27Z" fill="#F7DFAF"/>
<path d="M45.2697 13.27V16.74L42.2598 15.01V11.54L45.2697 13.27Z" fill="#056CC1"/>
<path d="M27.7598 39.9899V39.1599L62.3398 23.1299L31.1698 41.9499L27.7598 39.9899Z" fill="#056CC1"/>
<path d="M31.1698 41.1199L27.7598 39.1599L58.9297 21.1599L62.3398 23.1299L31.1698 41.1199Z" fill="#488DEF"/>
<path d="M31.1699 41.9499V41.1199L62.3399 23.1299V23.9599L31.1699 41.9499Z" fill="#0564A5"/>
<path d="M33.9802 35.8101V39.2801L30.9702 41.0101L27.9702 35.8101H33.9802Z" fill="#0564A5"/>
<path d="M30.9702 37.5501L27.9702 35.8101L30.9702 34.0701L33.9802 35.8101L30.9702 37.5501Z" fill="#F7DFAF"/>
<path d="M30.9702 37.5501V41.0101L27.9702 39.2801V35.8101L30.9702 37.5501Z" fill="#056CC1"/>
<path d="M48.0598 27.6799V31.1499L45.0598 32.8799L42.0498 27.6799H48.0598Z" fill="#0564A5"/>
<path d="M45.0598 29.4099L42.0498 27.6799L45.0598 25.9399L48.0598 27.6799L45.0598 29.4099Z" fill="#F7DFAF"/>
<path d="M45.0598 29.4099V32.8799L42.0498 31.1499V27.6799L45.0598 29.4099Z" fill="#056CC1"/>
<path d="M62.1499 19.55V23.0201L59.1399 24.75L56.1299 19.55H62.1499Z" fill="#0564A5"/>
<path d="M59.1399 21.2801L56.1299 19.5501L59.1399 17.8101L62.1499 19.5501L59.1399 21.2801Z" fill="#F7DFAF"/>
<path d="M59.1399 21.2801V24.75L56.1299 23.0201V19.55L59.1399 21.2801Z" fill="#056CC1"/>
<path d="M34.57 35.6901V34.8601L0 18.8301L31.17 37.6601L34.57 35.6901Z" fill="#056CC1"/>
<path d="M31.17 36.8301L34.57 34.8601L3.39999 16.8601L0 18.8301L31.17 36.8301Z" fill="#53A2F2"/>
<path d="M31.17 37.6601V36.8301L0 18.8301V19.6601L31.17 37.6601Z" fill="#056CC1"/>
<path d="M48.4599 27.6801V26.8401L13.8799 10.8201L45.0499 29.6401L48.4599 27.6801Z" fill="#056CC1"/>
<path d="M45.0499 28.8101L48.4599 26.8401L17.2899 8.8501L13.8799 10.8201L45.0499 28.8101Z" fill="#53A2F2"/>
<path d="M45.0499 29.6401V28.8101L13.8799 10.8201V11.6501L45.0499 29.6401Z" fill="#0564A5"/>
<path d="M62.3398 19.66V18.83L27.7598 2.80005L58.9297 21.63L62.3398 19.66Z" fill="#056CC1"/>
<path d="M58.9297 20.8001L62.3398 18.8301L31.1698 0.830078L27.7598 2.80008L58.9297 20.8001Z" fill="#53A2F2"/>
<path d="M58.9297 21.63V20.8L27.7598 2.80005V3.63005L58.9297 21.63Z" fill="#0564A5"/>
<path d="M0 18.83V18L34.57 1.96997L3.39999 20.8L0 18.83Z" fill="#056CC1"/>
<path d="M3.39999 19.97L0 18L31.17 0L34.57 1.97L3.39999 19.97Z" fill="#488DEF"/>
<path d="M3.3999 20.8V19.97L34.5699 1.96997V2.79997L3.3999 20.8Z" fill="#1A79D8"/>
<path d="M2.48016 17.6101V17.6801L2.24014 17.8101L2.16016 17.7001L2.48016 17.6101Z" fill="#A39C95"/>
<path d="M2.24017 17.7501V17.8101H1.91019L1.68018 17.6101L2.24017 17.7501Z" fill="#B5AFA7"/>
<path d="M1.91019 17.7501V17.8101L1.68018 17.6801V17.6101L1.91019 17.7501Z" fill="#D8D1C7"/>
<path d="M1.68018 17.42V17.61L1.91019 17.75H2.24017L2.48019 17.61V17.42L2.24017 17.29H1.91019L1.68018 17.42Z" fill="#E6E1DD"/>
<path d="M4.60028 18.8401V18.9001L4.36029 19.0401L4.28027 18.9201L4.60028 18.8401Z" fill="#A39C95"/>
<path d="M4.36029 18.9701V19.0401H4.04028L3.80029 18.8401L4.36029 18.9701Z" fill="#B5AFA7"/>
<path d="M4.04028 18.9701V19.0401L3.80029 18.9001V18.8401L4.04028 18.9701Z" fill="#D8D1C7"/>
<path d="M3.80029 18.65V18.84L4.04028 18.97H4.36029L4.60028 18.84V18.65L4.36029 18.51H4.04028L3.80029 18.65Z" fill="#E6E1DD"/>
<path d="M16.5998 9.45996V9.52996L16.3598 9.65996L16.2798 9.54996L16.5998 9.45996Z" fill="#A39C95"/>
<path d="M16.3598 9.59996V9.65996H16.0298L15.7998 9.45996L16.3598 9.59996Z" fill="#B5AFA7"/>
<path d="M16.0298 9.59996V9.65996L15.7998 9.52996V9.45996L16.0298 9.59996Z" fill="#D8D1C7"/>
<path d="M15.7998 9.26989V9.45989L16.0298 9.59989H16.3598L16.5998 9.45989V9.26989L16.3598 9.13989H16.0298L15.7998 9.26989Z" fill="#E6E1DD"/>
<path d="M18.7199 10.6899V10.7499L18.4799 10.8899L18.3999 10.7699L18.7199 10.6899Z" fill="#A39C95"/>
<path d="M18.4799 10.8199V10.8899H18.1499L17.9199 10.6899L18.4799 10.8199Z" fill="#B5AFA7"/>
<path d="M18.1599 10.8199L18.1499 10.8899L17.9199 10.7499V10.6899L18.1599 10.8199Z" fill="#D8D1C7"/>
<path d="M17.9199 10.4999V10.6899L18.1599 10.8199H18.4799L18.7199 10.6899V10.4999L18.4799 10.3599H18.1599L17.9199 10.4999Z" fill="#E6E1DD"/>
<path d="M4.62012 21.4999V20.6699L39.2001 4.63989L8.03012 23.4699L4.62012 21.4999Z" fill="#056CC1"/>
<path d="M8.03012 22.6399L4.62012 20.6699L35.7901 2.67993L39.2001 4.63993L8.03012 22.6399Z" fill="#488DEF"/>
<path d="M8.02979 23.4699V22.6399L39.1998 4.63989V5.46989L8.02979 23.4699Z" fill="#1A79D8"/>
<path d="M7.10004 20.28V20.35L6.87003 20.49L6.79004 20.37L7.10004 20.28Z" fill="#A39C95"/>
<path d="M6.87006 20.42V20.49H6.54007L6.31006 20.28L6.87006 20.42Z" fill="#B5AFA7"/>
<path d="M6.54007 20.42V20.49L6.31006 20.35V20.28L6.54007 20.42Z" fill="#D8D1C7"/>
<path d="M6.31006 20.09V20.28L6.54007 20.42H6.87006L7.10007 20.28V20.09L6.87006 19.96H6.54007L6.31006 20.09Z" fill="#E6E1DD"/>
<path d="M9.22015 21.51V21.58L8.99014 21.71L8.91016 21.59L9.22015 21.51Z" fill="#A39C95"/>
<path d="M8.99017 21.64V21.71H8.66019L8.43018 21.51L8.99017 21.64Z" fill="#B5AFA7"/>
<path d="M8.66019 21.64V21.71L8.43018 21.58V21.51L8.66019 21.64Z" fill="#D8D1C7"/>
<path d="M8.43018 21.3199V21.5099L8.66019 21.6399H8.99017L9.22018 21.5099V21.3199L8.99017 21.1799H8.66019L8.43018 21.3199Z" fill="#E6E1DD"/>
<path d="M21.2202 12.1301V12.2001L20.9901 12.3301L20.9102 12.2201L21.2202 12.1301Z" fill="#A39C95"/>
<path d="M20.9902 12.2701V12.3301H20.6602L20.4302 12.1301L20.9902 12.2701Z" fill="#B5AFA7"/>
<path d="M20.6602 12.2701V12.3301L20.4302 12.2001V12.1301L20.6602 12.2701Z" fill="#D8D1C7"/>
<path d="M20.4302 11.9401V12.1301L20.6602 12.2701H20.9902L21.2202 12.1301V11.9401L20.9902 11.8101H20.6602L20.4302 11.9401Z" fill="#E6E1DD"/>
<path d="M23.3403 13.3601V13.4201L23.1103 13.5601L23.0303 13.4401L23.3403 13.3601Z" fill="#A39C95"/>
<path d="M23.1103 13.4901V13.5601H22.7803L22.5503 13.3601L23.1103 13.4901Z" fill="#B5AFA7"/>
<path d="M22.7803 13.4901V13.5601L22.5503 13.4201V13.3601L22.7803 13.4901Z" fill="#D8D1C7"/>
<path d="M22.5503 13.17V13.36L22.7803 13.49H23.1103L23.3403 13.36V13.17L23.1103 13.03H22.7803L22.5503 13.17Z" fill="#E6E1DD"/>
<path d="M35.4101 3.94019V4.01019L35.1801 4.14019L35.1001 4.02019L35.4101 3.94019Z" fill="#A39C95"/>
<path d="M35.1801 4.07019V4.14019H34.8501L34.6201 3.94019L35.1801 4.07019Z" fill="#B5AFA7"/>
<path d="M34.8501 4.07019V4.14019L34.6201 4.01019V3.94019L34.8501 4.07019Z" fill="#D8D1C7"/>
<path d="M34.6201 3.75012V3.94012L34.8501 4.07012H35.1801L35.4101 3.94012V3.75012L35.1801 3.62012H34.8501L34.6201 3.75012Z" fill="#E6E1DD"/>
<path d="M37.5302 5.16016V5.23016L37.3002 5.36016L37.2202 5.25016L37.5302 5.16016Z" fill="#A39C95"/>
<path d="M37.3003 5.30016V5.36016H36.9702L36.7402 5.16016L37.3003 5.30016Z" fill="#B5AFA7"/>
<path d="M36.9702 5.30016V5.36016L36.7402 5.23016V5.16016L36.9702 5.30016Z" fill="#D8D1C7"/>
<path d="M36.7402 4.97009V5.16009L36.9702 5.30009H37.3003L37.5302 5.16009V4.97009L37.3003 4.84009H36.9702L36.7402 4.97009Z" fill="#E6E1DD"/>
<path d="M9.25 24.1701V23.3401L43.83 7.31006L12.66 26.1401L9.25 24.1701Z" fill="#056CC1"/>
<path d="M12.66 25.3101L9.25 23.3401L40.42 5.3501L43.83 7.3101L12.66 25.3101Z" fill="#488DEF"/>
<path d="M12.6602 26.1401V25.3101L43.8302 7.31006V8.14006L12.6602 26.1401Z" fill="#1A79D8"/>
<path d="M11.7302 22.96V23.02L11.5002 23.16L11.4102 23.04L11.7302 22.96Z" fill="#A39C95"/>
<path d="M11.5002 23.09V23.16H11.1702L10.9302 22.96L11.5002 23.09Z" fill="#B5AFA7"/>
<path d="M11.1702 23.09V23.16L10.9302 23.02V22.96L11.1702 23.09Z" fill="#D8D1C7"/>
<path d="M10.9302 22.7699V22.9599L11.1702 23.0899H11.5002L11.7302 22.9599V22.7699L11.5002 22.6299H11.1702L10.9302 22.7699Z" fill="#E6E1DD"/>
<path d="M13.85 24.1799V24.2499L13.62 24.3799L13.54 24.2699L13.85 24.1799Z" fill="#A39C95"/>
<path d="M13.6201 24.3099V24.3799H13.2901L13.0601 24.1799L13.6201 24.3099Z" fill="#B5AFA7"/>
<path d="M13.2901 24.3099V24.3799L13.0601 24.2499V24.1799L13.2901 24.3099Z" fill="#D8D1C7"/>
<path d="M13.0601 23.9899V24.1799L13.2901 24.3099H13.6201L13.8501 24.1799V23.9899L13.6201 23.8599H13.2901L13.0601 23.9899Z" fill="#E6E1DD"/>
<path d="M25.8498 14.8V14.87L25.6198 15.01L25.5298 14.89L25.8498 14.8Z" fill="#A39C95"/>
<path d="M25.6198 14.94V15.01H25.2898L25.0498 14.8L25.6198 14.94Z" fill="#B5AFA7"/>
<path d="M25.2898 14.94V15.01L25.0498 14.87V14.8L25.2898 14.94Z" fill="#D8D1C7"/>
<path d="M25.0498 14.61V14.8L25.2898 14.94H25.6198L25.8498 14.8V14.61L25.6198 14.48H25.2898L25.0498 14.61Z" fill="#E6E1DD"/>
<path d="M27.9697 16.03V16.1L27.7397 16.23L27.6597 16.11L27.9697 16.03Z" fill="#A39C95"/>
<path d="M27.7397 16.16V16.23H27.4097L27.1797 16.03L27.7397 16.16Z" fill="#B5AFA7"/>
<path d="M27.4097 16.16V16.23L27.1797 16.1V16.03L27.4097 16.16Z" fill="#D8D1C7"/>
<path d="M27.1797 15.84V16.03L27.4097 16.16H27.7397L27.9697 16.03V15.84L27.7397 15.7H27.4097L27.1797 15.84Z" fill="#E6E1DD"/>
<path d="M40.0405 6.61011V6.68011L39.8105 6.81011L39.7305 6.69011L40.0405 6.61011Z" fill="#A39C95"/>
<path d="M39.8102 6.75011V6.81011H39.4803L39.2402 6.61011L39.8102 6.75011Z" fill="#B5AFA7"/>
<path d="M39.4803 6.75011V6.81011L39.2402 6.68011V6.61011L39.4803 6.75011Z" fill="#D8D1C7"/>
<path d="M39.2402 6.42004V6.61004L39.4803 6.75004H39.8102L40.0403 6.61004V6.42004L39.8102 6.29004H39.4803L39.2402 6.42004Z" fill="#E6E1DD"/>
<path d="M42.1601 7.84009V7.90009L41.9301 8.04009L41.8501 7.92009L42.1601 7.84009Z" fill="#A39C95"/>
<path d="M41.9301 7.97009V8.04009H41.6001L41.3701 7.84009L41.9301 7.97009Z" fill="#B5AFA7"/>
<path d="M41.6001 7.97009V8.04009L41.3701 7.90009V7.84009L41.6001 7.97009Z" fill="#D8D1C7"/>
<path d="M41.3701 7.65001V7.84001L41.6001 7.97001H41.9301L42.1601 7.84001V7.65001L41.9301 7.51001H41.6001L41.3701 7.65001Z" fill="#E6E1DD"/>
<path d="M13.8799 26.84V26.01L48.4599 9.98999L17.2899 28.81L13.8799 26.84Z" fill="#056CC1"/>
<path d="M17.2899 27.98L13.8799 26.01L45.0499 8.02002L48.4599 9.99002L17.2899 27.98Z" fill="#488DEF"/>
<path d="M17.29 28.81V27.98L48.46 9.98999V10.82L17.29 28.81Z" fill="#1A79D8"/>
<path d="M16.36 25.6301V25.6901L16.12 25.8301L16.04 25.7101L16.36 25.6301Z" fill="#A39C95"/>
<path d="M16.1201 25.7601V25.8301H15.7901L15.5601 25.6301L16.1201 25.7601Z" fill="#B5AFA7"/>
<path d="M15.7901 25.7601V25.8301L15.5601 25.6901V25.6301L15.7901 25.7601Z" fill="#D8D1C7"/>
<path d="M15.5601 25.4401V25.63L15.7901 25.76H16.1201L16.3601 25.63V25.4401L16.1201 25.3H15.7901L15.5601 25.4401Z" fill="#E6E1DD"/>
<path d="M18.4802 26.8501V26.9201L18.2502 27.0501L18.1602 26.9401L18.4802 26.8501Z" fill="#A39C95"/>
<path d="M18.2502 26.9901V27.0501H17.9202L17.6802 26.8501L18.2502 26.9901Z" fill="#B5AFA7"/>
<path d="M17.9202 26.9901V27.0501L17.6802 26.9201V26.8501L17.9202 26.9901Z" fill="#D8D1C7"/>
<path d="M17.6802 26.66V26.85L17.9202 26.99H18.2502L18.4802 26.85V26.66L18.2502 26.53H17.9202L17.6802 26.66Z" fill="#E6E1DD"/>
<path d="M30.4802 17.48V17.54L30.2401 17.68L30.1602 17.56L30.4802 17.48Z" fill="#A39C95"/>
<path d="M30.2402 17.61V17.68H29.9102L29.6802 17.48L30.2402 17.61Z" fill="#B5AFA7"/>
<path d="M29.9102 17.61V17.68L29.6802 17.54V17.48L29.9102 17.61Z" fill="#D8D1C7"/>
<path d="M29.6802 17.2799V17.4799L29.9102 17.6099H30.2402L30.4802 17.4799V17.2799L30.2402 17.1499H29.9102L29.6802 17.2799Z" fill="#E6E1DD"/>
<path d="M32.6003 18.7V18.77L32.3703 18.9L32.2803 18.7899L32.6003 18.7Z" fill="#A39C95"/>
<path d="M32.3703 18.83V18.9H32.0403L31.8003 18.7L32.3703 18.83Z" fill="#B5AFA7"/>
<path d="M32.0403 18.83V18.9L31.8003 18.77V18.7L32.0403 18.83Z" fill="#D8D1C7"/>
<path d="M31.8003 18.5099V18.6999L32.0403 18.8299H32.3703L32.6003 18.6999V18.5099L32.3703 18.3799H32.0403L31.8003 18.5099Z" fill="#E6E1DD"/>
<path d="M44.6701 9.28003V9.35003L44.4301 9.48003L44.3501 9.37003L44.6701 9.28003Z" fill="#A39C95"/>
<path d="M44.4301 9.42003V9.48003H44.1001L43.8701 9.28003L44.4301 9.42003Z" fill="#B5AFA7"/>
<path d="M44.1001 9.42003V9.48003L43.8701 9.35003V9.28003L44.1001 9.42003Z" fill="#D8D1C7"/>
<path d="M43.8701 9.08996V9.27996L44.1001 9.41996H44.4301L44.6701 9.27996V9.08996L44.4301 8.95996H44.1001L43.8701 9.08996Z" fill="#E6E1DD"/>
<path d="M46.7902 10.51V10.57L46.5602 10.71L46.4702 10.59L46.7902 10.51Z" fill="#A39C95"/>
<path d="M46.5602 10.64V10.71H46.2303L45.9902 10.51L46.5602 10.64Z" fill="#B5AFA7"/>
<path d="M46.2303 10.64V10.71L45.9902 10.57V10.51L46.2303 10.64Z" fill="#D8D1C7"/>
<path d="M45.9902 10.3199V10.5099L46.2303 10.6399H46.5602L46.7903 10.5099V10.3199L46.5602 10.1799H46.2303L45.9902 10.3199Z" fill="#E6E1DD"/>
<path d="M18.5 29.5199V28.6899L53.08 12.6599L21.91 31.4799L18.5 29.5199Z" fill="#056CC1"/>
<path d="M21.91 30.6499L18.5 28.6899L49.68 10.6899L53.08 12.6599L21.91 30.6499Z" fill="#488DEF"/>
<path d="M21.9102 31.4799V30.6499L53.0802 12.6599V13.4899L21.9102 31.4799Z" fill="#1A79D8"/>
<path d="M20.9799 28.3V28.3701L20.7499 28.5L20.6699 28.38L20.9799 28.3Z" fill="#A39C95"/>
<path d="M20.7499 28.43V28.5H20.42L20.1899 28.3L20.7499 28.43Z" fill="#B5AFA7"/>
<path d="M20.42 28.43V28.5L20.1899 28.3701V28.3L20.42 28.43Z" fill="#D8D1C7"/>
<path d="M20.1899 28.11V28.3L20.42 28.43H20.7499L20.9799 28.3V28.11L20.7499 27.98H20.42L20.1899 28.11Z" fill="#E6E1DD"/>
<path d="M23.11 29.52V29.59L22.87 29.72L22.79 29.61L23.11 29.52Z" fill="#A39C95"/>
<path d="M22.8701 29.66V29.72H22.5401L22.3101 29.52L22.8701 29.66Z" fill="#B5AFA7"/>
<path d="M22.5401 29.66V29.72L22.3101 29.59V29.52L22.5401 29.66Z" fill="#D8D1C7"/>
<path d="M22.3101 29.33V29.52L22.5401 29.66H22.8701L23.1101 29.52V29.33L22.8701 29.2H22.5401L22.3101 29.33Z" fill="#E6E1DD"/>
<path d="M35.1 20.1501V20.2101L34.87 20.3501L34.79 20.2301L35.1 20.1501Z" fill="#A39C95"/>
<path d="M34.8701 20.2801V20.3501H34.5401L34.3101 20.1501L34.8701 20.2801Z" fill="#B5AFA7"/>
<path d="M34.5401 20.2801V20.3501L34.3101 20.2101V20.1501L34.5401 20.2801Z" fill="#D8D1C7"/>
<path d="M34.3101 19.9601V20.1501L34.5401 20.2801H34.8701L35.1001 20.1501V19.9601L34.8701 19.8201H34.5401L34.3101 19.9601Z" fill="#E6E1DD"/>
<path d="M37.2302 21.3701V21.4401L36.9901 21.5701L36.9102 21.4601L37.2302 21.3701Z" fill="#A39C95"/>
<path d="M36.9902 21.5101V21.5701H36.6602L36.4302 21.3701L36.9902 21.5101Z" fill="#B5AFA7"/>
<path d="M36.6602 21.5101V21.5701L36.4302 21.4401V21.3701L36.6602 21.5101Z" fill="#D8D1C7"/>
<path d="M36.4302 21.18V21.3701L36.6602 21.51H36.9902L37.2302 21.3701V21.18L36.9902 21.05H36.6602L36.4302 21.18Z" fill="#E6E1DD"/>
<path d="M49.29 11.95V12.02L49.06 12.15L48.98 12.04L49.29 11.95Z" fill="#A39C95"/>
<path d="M49.06 12.09V12.15L48.73 12.16L48.5 11.95L49.06 12.09Z" fill="#B5AFA7"/>
<path d="M48.73 12.09V12.16L48.5 12.02V11.95L48.73 12.09Z" fill="#D8D1C7"/>
<path d="M48.5 11.7599V11.9499L48.73 12.0899H49.06L49.29 11.9499V11.7599L49.06 11.6299H48.73L48.5 11.7599Z" fill="#E6E1DD"/>
<path d="M51.4201 13.1799V13.2499L51.1801 13.3799L51.1001 13.2599L51.4201 13.1799Z" fill="#A39C95"/>
<path d="M51.1801 13.3099V13.3799H50.8501L50.6201 13.1799L51.1801 13.3099Z" fill="#B5AFA7"/>
<path d="M50.8501 13.3099V13.3799L50.6201 13.2499V13.1799L50.8501 13.3099Z" fill="#D8D1C7"/>
<path d="M50.6201 12.9899V13.1799L50.8501 13.3099H51.1801L51.4201 13.1799L51.4101 12.9899L51.1801 12.8599H50.8501L50.6201 12.9899Z" fill="#E6E1DD"/>
<path d="M23.1299 32.1901V31.3601L57.7099 15.3301L26.5399 34.1601L23.1299 32.1901Z" fill="#056CC1"/>
<path d="M26.5399 33.3201L23.1299 31.3601L54.2999 13.3601L57.7099 15.3301L26.5399 33.3201Z" fill="#488DEF"/>
<path d="M26.54 34.1601V33.3201L57.71 15.3301V16.1601L26.54 34.1601Z" fill="#1A79D8"/>
<path d="M25.6098 30.97V31.04L25.3798 31.17L25.2998 31.06L25.6098 30.97Z" fill="#A39C95"/>
<path d="M25.3798 31.1V31.17H25.0498L24.8198 30.97L25.3798 31.1Z" fill="#B5AFA7"/>
<path d="M25.0498 31.1V31.17L24.8198 31.04V30.97L25.0498 31.1Z" fill="#D8D1C7"/>
<path d="M24.8198 30.7799V30.9699L25.0498 31.0999H25.3798L25.6098 30.9699V30.7799L25.3798 30.6399H25.0498L24.8198 30.7799Z" fill="#E6E1DD"/>
<path d="M27.7299 32.1899V32.2599L27.4999 32.3999L27.4199 32.2799L27.7299 32.1899Z" fill="#A39C95"/>
<path d="M27.4999 32.3299V32.3999H27.17L26.9399 32.1899L27.4999 32.3299Z" fill="#B5AFA7"/>
<path d="M27.17 32.3299V32.3999L26.9399 32.2599V32.1899L27.17 32.3299Z" fill="#D8D1C7"/>
<path d="M26.9399 32.0099V32.1899L27.17 32.3299H27.4999L27.7299 32.1899V32.0099L27.4999 31.8699H27.17L26.9399 32.0099Z" fill="#E6E1DD"/>
<path d="M39.7299 22.8201V22.8901L39.4999 23.0201L39.4199 22.9001L39.7299 22.8201Z" fill="#A39C95"/>
<path d="M39.4999 22.9501V23.0201H39.17L38.9399 22.8201L39.4999 22.9501Z" fill="#B5AFA7"/>
<path d="M39.17 22.9501V23.0201L38.9399 22.8901V22.8201L39.17 22.9501Z" fill="#D8D1C7"/>
<path d="M38.9399 22.63V22.82L39.17 22.95H39.4999L39.7299 22.82V22.63L39.4999 22.49H39.17L38.9399 22.63Z" fill="#E6E1DD"/>
<path d="M41.85 24.04V24.11L41.62 24.24L41.54 24.13L41.85 24.04Z" fill="#A39C95"/>
<path d="M41.6201 24.18V24.24H41.2901L41.0601 24.04L41.6201 24.18Z" fill="#B5AFA7"/>
<path d="M41.2901 24.18V24.24L41.0601 24.11V24.04L41.2901 24.18Z" fill="#D8D1C7"/>
<path d="M41.0601 23.85V24.04L41.2901 24.18H41.6201L41.8501 24.04V23.85L41.6201 23.72H41.2901L41.0601 23.85Z" fill="#E6E1DD"/>
<path d="M53.9199 14.6301V14.6901L53.6898 14.8301L53.6099 14.7101L53.9199 14.6301Z" fill="#A39C95"/>
<path d="M53.6899 14.7601V14.8301H53.3599L53.1299 14.6301L53.6899 14.7601Z" fill="#B5AFA7"/>
<path d="M53.3599 14.7601V14.8301L53.1299 14.6901V14.6301L53.3599 14.7601Z" fill="#D8D1C7"/>
<path d="M53.1299 14.44V14.63L53.3599 14.76H53.6899L53.9199 14.63V14.44L53.6899 14.3H53.3599L53.1299 14.44Z" fill="#E6E1DD"/>
<path d="M56.04 15.8501V15.9201L55.81 16.0501L55.73 15.9401L56.04 15.8501Z" fill="#A39C95"/>
<path d="M55.81 15.9801V16.0501H55.48L55.25 15.8501L55.81 15.9801Z" fill="#B5AFA7"/>
<path d="M55.48 15.9801V16.0501L55.25 15.9201V15.8501L55.48 15.9801Z" fill="#D8D1C7"/>
<path d="M55.25 15.66V15.85L55.48 15.98H55.81L56.04 15.85V15.66L55.81 15.53H55.48L55.25 15.66Z" fill="#E6E1DD"/>
<path d="M27.7598 34.86V34.03L62.3398 18L31.1698 36.83L27.7598 34.86Z" fill="#056CC1"/>
<path d="M31.1698 36L27.7598 34.03L58.9297 16.03L62.3398 18L31.1698 36Z" fill="#488DEF"/>
<path d="M31.1699 36.83V36L62.3399 18V18.83L31.1699 36.83Z" fill="#1A79D8"/>
<path d="M30.2399 33.6401V33.7101L30.0099 33.8401L29.9199 33.7301L30.2399 33.6401Z" fill="#A39C95"/>
<path d="M30.0099 33.7801V33.8401H29.6799L29.4399 33.6401L30.0099 33.7801Z" fill="#B5AFA7"/>
<path d="M29.6799 33.7801V33.8401L29.4399 33.7101V33.6401L29.6799 33.7801Z" fill="#D8D1C7"/>
<path d="M29.4399 33.4501V33.6401L29.6799 33.7801H30.0099L30.2399 33.6401V33.4501L30.0099 33.3201H29.6799L29.4399 33.4501Z" fill="#E6E1DD"/>
<path d="M32.36 34.8701V34.9301L32.13 35.0701L32.04 34.9501L32.36 34.8701Z" fill="#A39C95"/>
<path d="M32.1301 35.0001V35.0701H31.8001L31.5601 34.8701L32.1301 35.0001Z" fill="#B5AFA7"/>
<path d="M31.8001 35.0001V35.0701L31.5601 34.9301V34.8701L31.8001 35.0001Z" fill="#D8D1C7"/>
<path d="M31.5601 34.68V34.87L31.8001 35H32.1301L32.3601 34.87V34.68L32.1301 34.54H31.8001L31.5601 34.68Z" fill="#E6E1DD"/>
<path d="M44.36 25.49V25.56L44.13 25.69L44.04 25.57L44.36 25.49Z" fill="#A39C95"/>
<path d="M44.1301 25.62V25.69H43.8001L43.5601 25.49L44.1301 25.62Z" fill="#B5AFA7"/>
<path d="M43.8001 25.62V25.69L43.5601 25.56V25.49L43.8001 25.62Z" fill="#D8D1C7"/>
<path d="M43.5601 25.2999V25.4899L43.8001 25.6199H44.1301L44.3601 25.4899V25.2999L44.1301 25.1699H43.8001L43.5601 25.2999Z" fill="#E6E1DD"/>
<path d="M46.4802 26.71V26.78L46.2502 26.91L46.1602 26.8L46.4802 26.71Z" fill="#A39C95"/>
<path d="M46.2502 26.85V26.91L45.9202 26.92L45.6802 26.71L46.2502 26.85Z" fill="#B5AFA7"/>
<path d="M45.9202 26.85V26.92L45.6802 26.78V26.71L45.9202 26.85Z" fill="#D8D1C7"/>
<path d="M45.6802 26.5199V26.7099L45.9202 26.8499H46.2502L46.4802 26.7099V26.5199L46.2502 26.3899H45.9202L45.6802 26.5199Z" fill="#E6E1DD"/>
<path d="M58.55 17.3V17.3601L58.32 17.5L58.23 17.38L58.55 17.3Z" fill="#A39C95"/>
<path d="M58.32 17.43V17.5H57.99L57.75 17.3L58.32 17.43Z" fill="#B5AFA7"/>
<path d="M57.99 17.43V17.5L57.75 17.3601V17.3L57.99 17.43Z" fill="#D8D1C7"/>
<path d="M57.75 17.11V17.3L57.99 17.43H58.32L58.55 17.3V17.11L58.32 16.97H57.99L57.75 17.11Z" fill="#E6E1DD"/>
<path d="M60.6703 18.52V18.59L60.4403 18.72L60.3604 18.61L60.6703 18.52Z" fill="#A39C95"/>
<path d="M60.4399 18.66V18.72H60.1099L59.8799 18.52L60.4399 18.66Z" fill="#B5AFA7"/>
<path d="M60.1101 18.66V18.72L59.8701 18.59L59.8801 18.52L60.1101 18.66Z" fill="#D8D1C7"/>
<path d="M59.8799 18.33V18.52L60.1099 18.66H60.4399L60.6699 18.52V18.33L60.4399 18.2H60.1099L59.8799 18.33Z" fill="#E6E1DD"/>
</svg>
