<svg width="70" height="36" viewBox="0 0 70 36" fill="none" xmlns="http://www.w3.org/2000/svg">
<path d="M0.189941 11.637L22.3399 0.556973C22.5899 0.426973 22.9999 0.426973 23.2499 0.556973L69.5999 23.737C69.6199 23.747 69.6399 23.757 69.6499 23.767L69.5699 23.637L69.7899 23.607V23.947C69.7999 24.037 69.7399 24.117 69.5999 24.187L47.4499 35.267C47.1999 35.397 46.7899 35.397 46.5399 35.267L0.189941 12.087C-0.0600586 11.967 -0.0600586 11.767 0.189941 11.637Z" fill="#1A79D8"/>
<path d="M69.6099 23.8471L47.4599 34.9271C47.2099 35.0571 46.7999 35.0571 46.5499 34.9271L0.199882 11.7471C-0.0501176 11.6171 -0.0401176 11.4071 0.199882 11.2871L22.3499 0.207119C22.5999 0.0771191 23.0099 0.0771191 23.2599 0.207119L69.6099 23.3871C69.8599 23.5071 69.8599 23.7171 69.6099 23.8471Z" fill="#488DEF"/>
<path d="M19.2002 9.10709L59.1502 29.0871L59.3302 28.9971L19.3802 9.01709L19.2002 9.10709Z" fill="#1A79D8"/>
<path d="M30.94 5.46714L23.3 0.437139C22.75 0.167139 22.39 0.437139 22.39 0.437139L11.32 5.97714L0.25 11.5171C0.25 11.5171 0.129998 11.3771 0.0599976 11.4471L0.0100098 11.4071L0 11.8671C0 11.9371 0.07 11.8771 0.25 11.9671L10.88 15.7671C11.39 15.9471 12.1 15.9171 12.54 15.6971L21.65 11.1371L30.76 6.57714C31.2 6.35714 31.31 5.72714 30.94 5.46714Z" fill="#056CC1"/>
<path d="M22.3898 0.117091L11.3198 5.65709L0.249816 11.1971C0.249816 11.1971 -0.300184 11.3771 0.249816 11.6571L10.8798 15.4571C11.3898 15.6371 12.0998 15.6071 12.5398 15.3871L21.6498 10.8271L30.7598 6.26709C31.2098 6.04709 31.2598 5.69709 30.8998 5.43709L23.3098 0.127091C22.7598 -0.152909 22.3898 0.117091 22.3898 0.117091Z" fill="#53A2F2"/>
<path d="M22.2702 9.00718C22.6802 9.20718 22.6802 9.74718 22.2702 9.95718C21.8602 10.1572 21.2002 10.1572 20.8002 9.95718C20.3902 9.75718 20.3902 9.21718 20.8002 9.00718C21.2002 8.80718 21.8602 8.80718 22.2702 9.00718Z" fill="#B3B3B3"/>
<path d="M21.5302 9.89718C22.1046 9.89718 22.5702 9.66437 22.5702 9.37718C22.5702 9.08999 22.1046 8.85718 21.5302 8.85718C20.9559 8.85718 20.4902 9.08999 20.4902 9.37718C20.4902 9.66437 20.9559 9.89718 21.5302 9.89718Z" fill="white"/>
<path d="M11.1001 13.7971L6.39012 11.4271C6.28012 11.3671 6.28012 11.2771 6.39012 11.2171L12.9601 7.93709C13.0701 7.87709 13.2601 7.87709 13.3701 7.93709L18.0801 10.3071C18.1901 10.3671 18.1901 10.4571 18.0801 10.5171L11.5101 13.7971C11.4001 13.8571 11.2101 13.8571 11.1001 13.7971Z" fill="#962823"/>
<path d="M17.7502 10.507L11.5102 13.627C11.4002 13.687 11.2102 13.687 11.1002 13.627L6.7202 11.427C6.6102 11.367 6.6102 11.277 6.7202 11.217L12.9602 8.097C13.0702 8.037 13.2602 8.037 13.3702 8.097L17.7502 10.297C17.8702 10.357 17.8702 10.457 17.7502 10.507Z" fill="white"/>
<path d="M12.7702 8.73698L7.41025 11.417L7.26025 11.337L12.6302 8.65698L12.7702 8.73698Z" fill="#2C323D"/>
<path d="M13.1204 8.90691L7.76036 11.5869L7.61035 11.5169L12.9804 8.83691L13.1204 8.90691Z" fill="#2C323D"/>
<path d="M13.4704 9.08708L8.11044 11.7671L7.96045 11.6871L13.3204 9.00708L13.4704 9.08708Z" fill="#2C323D"/>
<path d="M13.8201 9.25701L8.46007 11.937L8.31006 11.867L13.6701 9.18701L13.8201 9.25701Z" fill="#2C323D"/>
<path d="M14.1702 9.42693L8.81015 12.1169L8.66016 12.0369L14.0202 9.35693L14.1702 9.42693Z" fill="#2C323D"/>
<path d="M16.4201 9.88688L13.0401 11.5769L12.8901 11.4969L16.2701 9.80688L16.4201 9.88688Z" fill="#2C323D"/>
<path d="M16.7702 10.0571L13.3902 11.7471L13.2402 11.6771L16.6202 9.98706L16.7702 10.0571Z" fill="#2C323D"/>
<path d="M17.1203 10.237L13.7403 11.927L13.5903 11.847L16.9703 10.157L17.1203 10.237Z" fill="#2C323D"/>
<path d="M15.4103 9.427L9.30029 12.487L9.38029 12.527L15.4903 9.467L15.4103 9.427Z" fill="#961010"/>
<path d="M58.6499 26.9371L55.2399 25.2371C55.1199 25.1771 55.1199 25.0871 55.2399 25.0271L61.8599 21.7171C61.9799 21.6571 62.1599 21.6571 62.2799 21.7171L65.6899 23.4171C65.8099 23.4771 65.8099 23.5671 65.6899 23.6271L59.0699 26.9371C58.9499 26.9971 58.7599 26.9971 58.6499 26.9371Z" fill="#2C323D"/>
<path d="M65.3497 23.627L59.0597 26.767C58.9397 26.827 58.7597 26.827 58.6397 26.767L55.5597 25.227C55.4397 25.167 55.4397 25.077 55.5597 25.017L61.8497 21.877C61.9697 21.817 62.1497 21.817 62.2697 21.877L65.3497 23.417C65.4697 23.477 65.4697 23.567 65.3497 23.627Z" fill="white"/>
<path d="M59.24 26.317L59 26.437L56.25 25.067L56.49 24.947L59.24 26.317Z" fill="#2C323D"/>
<path d="M60.6799 25.597L60.4399 25.7171L57.6899 24.347L57.9299 24.2271L60.6799 25.597Z" fill="#2C323D"/>
<path d="M60.85 25.517L60.77 25.557L58.02 24.177L58.1 24.137L60.85 25.517Z" fill="#2C323D"/>
<path d="M61.0102 25.4369L60.9302 25.4769L58.1802 24.0969L58.2602 24.0569L61.0102 25.4369Z" fill="#2C323D"/>
<path d="M61.8102 25.037L61.7402 25.077L58.9902 23.697L59.0602 23.657L61.8102 25.037Z" fill="#2C323D"/>
<path d="M59.4999 26.1869L59.3799 26.2469L56.6299 24.8769L56.7499 24.8169L59.4999 26.1869Z" fill="#2C323D"/>
<path d="M61.3699 25.257L61.1299 25.377L58.3799 24.007L58.6199 23.877L61.3699 25.257Z" fill="#2C323D"/>
<path d="M61.6298 25.1271L61.5098 25.1871L58.7598 23.8071L58.8798 23.7471L61.6298 25.1271Z" fill="#2C323D"/>
<path d="M59.7699 26.057L59.6499 26.117L56.8999 24.747L57.0199 24.677L59.7699 26.057Z" fill="#2C323D"/>
<path d="M60.0302 25.9269L59.9102 25.9869L57.1602 24.6069L57.2802 24.5469L60.0302 25.9269Z" fill="#2C323D"/>
<path d="M60.3002 25.797L60.1702 25.857L57.4302 24.477L57.5502 24.417L60.3002 25.797Z" fill="#2C323D"/>
<path d="M61.7002 22.347L61.9402 22.217L64.6902 23.597L64.4502 23.717L61.7002 22.347Z" fill="#2C323D"/>
<path d="M60.2603 23.067L60.5002 22.937L63.2502 24.317L63.0103 24.437L60.2603 23.067Z" fill="#2C323D"/>
<path d="M60.0903 23.1469L60.1603 23.1069L62.9103 24.4869L62.8403 24.5269L60.0903 23.1469Z" fill="#2C323D"/>
<path d="M59.9302 23.227L60.0002 23.187L62.7502 24.567L62.6802 24.607L59.9302 23.227Z" fill="#2C323D"/>
<path d="M59.1201 23.6272L59.2001 23.5872L61.9501 24.9672L61.8701 25.0072L59.1201 23.6272Z" fill="#2C323D"/>
<path d="M61.4302 22.477L61.5502 22.417L64.3002 23.787L64.1802 23.847L61.4302 22.477Z" fill="#2C323D"/>
<path d="M59.5703 23.4071L59.8103 23.2871L62.5603 24.6571L62.3203 24.7771L59.5703 23.4071Z" fill="#2C323D"/>
<path d="M59.3101 23.5371L59.4301 23.4771L62.1801 24.857L62.0501 24.917L59.3101 23.5371Z" fill="#2C323D"/>
<path d="M61.1699 22.6071L61.2899 22.5471L64.0399 23.9171L63.9199 23.9771L61.1699 22.6071Z" fill="#2C323D"/>
<path d="M60.9102 22.737L61.0302 22.677L63.7802 24.057L63.6501 24.117L60.9102 22.737Z" fill="#2C323D"/>
<path d="M60.6401 22.8671L60.7601 22.8071L63.5101 24.1871L63.3901 24.2471L60.6401 22.8671Z" fill="#2C323D"/>
</svg>
