<svg width="76" height="39" viewBox="0 0 76 39" fill="none" xmlns="http://www.w3.org/2000/svg">
<g clip-path="url(#clip0_65_1258)">
<path d="M33.7781 4.41112V31.1872L30.8193 29.6994V2.92334L33.7781 4.41112Z" fill="#21599C"/>
<path d="M21.5232 3.00781V25.023L18.5645 23.5352V4.49559L21.5232 3.00781Z" fill="#21599C"/>
<path d="M39.9075 7.49535V34.2674L36.9487 32.7796V6.00757L39.9075 7.49535Z" fill="#9C2121"/>
<path d="M75.7243 24.653C76.1601 24.8742 76.0442 26.0202 75.6084 26.2413L73.8491 27.126V24.5605L75.7243 24.653Z" fill="#9C2121"/>
<path d="M52.2943 13.7239V37.9667L50.567 38.8352C50.2352 39.0041 49.7434 39.0403 49.3315 38.9518V12.2361L52.2943 13.7239Z" fill="#9C2121"/>
<path d="M25.4615 1.02549C25.8973 0.80433 26.605 0.80433 27.0449 1.02549L27.6526 1.33109V28.1031L24.6938 26.6153V1.41553L25.4615 1.02549Z" fill="#9C2121"/>
<path d="M58.4236 16.8039V34.8825L55.4648 36.3743V15.3162L58.4236 16.8039Z" fill="#21599C"/>
<path d="M70.6825 22.9683V28.7224L67.7197 30.2101V21.4805L70.6825 22.9683Z" fill="#21599C"/>
<path d="M3.00705 15.7104L0.42414 14.4116C-0.0116768 14.1905 -0.179606 13.0806 0.25621 12.8635L3.00705 12.3167V15.7104Z" fill="#9C2121"/>
<path d="M9.13258 9.23633V18.7943L6.17383 17.3065V10.7241L9.13258 9.23633Z" fill="#21599C"/>
<path d="M15.3939 6.08789V21.9428L12.3032 20.3867V7.64403L15.3939 6.08789Z" fill="#9C2121"/>
<path d="M64.553 19.8882V31.8025L61.5942 33.2903V18.4004L64.553 19.8882Z" fill="#9C2121"/>
<path d="M46.1688 10.6438V37.4158L43.0781 35.8597V9.08765L46.1688 10.6438Z" fill="#21599C"/>
<path d="M73.8493 24.5606V27.126L70.6826 28.7224V22.9683L73.8493 24.5606Z" fill="#D4D4D4"/>
<path d="M67.7199 21.4805V30.2102L64.5532 31.8025V19.8882L67.7199 21.4805Z" fill="#D4D4D4"/>
<path d="M61.5945 18.4003V33.2902L58.4238 34.8825V16.804L61.5945 18.4003Z" fill="#D4D4D4"/>
<path d="M55.4651 15.3162V36.3744L52.2944 37.9667V13.7239L55.4651 15.3162Z" fill="#D4D4D4"/>
<path d="M49.3356 12.2361V38.9519C49.2077 38.9237 49.0917 38.8835 48.9878 38.8353L46.1689 37.4158V10.6438L49.3356 12.2361Z" fill="#D4D4D4"/>
<path d="M43.0784 9.08769V35.8597L39.9077 34.2674V7.49536L43.0784 9.08769Z" fill="#D4D4D4"/>
<path d="M36.949 6.00748V32.7795L33.7783 31.1872V4.41113L36.949 6.00748Z" fill="#D4D4D4"/>
<path d="M30.8195 2.92338V29.6994L27.6528 28.1031V1.33105L30.8195 2.92338Z" fill="#D4D4D4"/>
<path d="M24.6901 1.41553V26.6153L21.5234 25.023V3.00786L24.6901 1.41553Z" fill="#D4D4D4"/>
<path d="M18.5647 4.49561V23.5352L15.394 21.9429V6.08793L18.5647 4.49561Z" fill="#D4D4D4"/>
<path d="M12.303 7.64404V20.3867L9.13232 18.7944V9.23637L12.303 7.64404Z" fill="#D4D4D4"/>
<path d="M6.1735 10.7241V17.3066L3.00684 15.7102V12.3205L6.1735 10.7241Z" fill="#D4D4D4"/>
<path d="M4.37471 14.4116L48.9879 36.8449C49.4237 37.0661 50.1315 37.0661 50.5713 36.8449L71.6584 26.2415C72.0942 26.0203 72.0942 25.6664 71.6584 25.4453L27.0452 3.01597C26.6094 2.79481 25.9016 2.79481 25.4618 3.01597L4.37471 13.6194C3.9389 13.8366 3.9389 14.1944 4.37471 14.4116Z" fill="white"/>
<path d="M33.7781 3.55053V30.3226L30.8193 28.8348V2.06274L33.7781 3.55053Z" fill="#3082E3"/>
<path d="M21.5232 2.14722V24.1624L18.5645 22.6746V3.635L21.5232 2.14722Z" fill="#3082E3"/>
<path d="M39.9075 6.6306V33.4067L36.9487 31.9189V5.14282L39.9075 6.6306Z" fill="#E33030"/>
<path d="M75.6123 24.5846C76.0481 24.8057 76.0481 25.1596 75.6123 25.3807L73.853 26.2654V23.7L75.6123 24.5846Z" fill="#E33030"/>
<path d="M52.2943 12.8633V37.1061L50.567 37.9746C50.2352 38.1435 49.7434 38.1797 49.3315 38.0912V11.3755L52.2943 12.8633Z" fill="#E33030"/>
<path d="M25.4615 0.164891C25.8973 -0.0562658 26.605 -0.0562658 27.0449 0.164891L27.6526 0.47049V27.2425L24.6938 25.7547V0.554931L25.4615 0.164891Z" fill="#E33030"/>
<path d="M58.4236 15.9433V34.0219L55.4648 35.5097V14.4556L58.4236 15.9433Z" fill="#3082E3"/>
<path d="M70.6825 22.1077V27.8577L67.7197 29.3495V20.6199L70.6825 22.1077Z" fill="#3082E3"/>
<path d="M3.00694 14.8498L0.42403 13.551C-0.0117862 13.3299 -0.0117862 12.976 0.42403 12.7548L3.00694 11.4561V14.8498Z" fill="#E33030"/>
<path d="M9.13258 8.37573V17.9337L6.17383 16.4419V9.86352L9.13258 8.37573Z" fill="#3082E3"/>
<path d="M15.3939 5.22729V21.0782L12.3032 19.5261V6.78344L15.3939 5.22729Z" fill="#E33030"/>
<path d="M64.553 19.0234V30.9418L61.5942 32.4296V17.5356L64.553 19.0234Z" fill="#E33030"/>
<path d="M46.1688 9.77917V36.5552L43.0781 34.9991V8.22705L46.1688 9.77917Z" fill="#3082E3"/>
<path d="M73.8493 23.7V26.2654L70.6826 27.8577V22.1077L73.8493 23.7Z" fill="white"/>
<path d="M67.7199 20.6198V29.3494L64.5532 30.9418V19.0234L67.7199 20.6198Z" fill="white"/>
<path d="M61.5945 17.5357V32.4296L58.4238 34.0219V15.9434L61.5945 17.5357Z" fill="white"/>
<path d="M55.4646 14.4556V35.5097L52.2939 37.1061V12.8633L55.4646 14.4556Z" fill="white"/>
<path d="M49.3356 11.3756V38.0914C49.2077 38.0632 49.0917 38.023 48.9878 37.9748L46.1689 36.5554V9.7793L49.3356 11.3756Z" fill="white"/>
<path d="M43.0779 8.22697V34.999L39.9072 33.4067V6.63062L43.0779 8.22697Z" fill="white"/>
<path d="M36.9485 5.14287V31.9189L33.7778 30.3226V3.55054L36.9485 5.14287Z" fill="white"/>
<path d="M30.819 2.06279V28.8348L27.6523 27.2425V0.470459L30.819 2.06279Z" fill="white"/>
<path d="M24.6896 0.554932V25.7547L21.5229 24.1624V2.14726L24.6896 0.554932Z" fill="white"/>
<path d="M18.5642 3.63501V22.6746L15.3936 21.0783V5.22734L18.5642 3.63501Z" fill="white"/>
<path d="M12.303 6.78345V19.5261L9.13232 17.9338V8.37578L12.303 6.78345Z" fill="white"/>
<path d="M6.1735 9.86353V16.4419L3.00684 14.8496V11.4559L6.1735 9.86353Z" fill="white"/>
<path d="M4.37423 13.5508L48.9874 35.9842C49.4233 36.2053 50.131 36.2053 50.5708 35.9842L71.6579 25.3807C72.0937 25.1596 72.0937 24.8057 71.6579 24.5846L27.0447 2.15122C26.6089 1.93006 25.9012 1.93006 25.4613 2.15122L4.37423 12.7547C3.93841 12.9758 3.93841 13.3337 4.37423 13.5508Z" fill="white"/>
<path d="M61.1623 27.1863L66.716 24.3957L62.5977 22.3208L57.04 25.1154L61.1623 27.1863Z" fill="#21599C"/>
<path d="M57.2002 25.1153L61.1625 27.1098L66.5603 24.3956L62.5979 22.4011L57.2002 25.1153Z" fill="#80CDFF"/>
<path d="M64.361 25.5015C64.361 25.5015 61.7021 25.1919 60.9065 24.6933C60.1108 24.1947 60.0269 23.696 60.0269 23.696L58.6274 24.3997L62.5898 26.3942L64.361 25.5015Z" fill="#2085C7"/>
<path d="M62.8138 26.2815C62.8138 26.2815 60.2909 25.0711 60.155 23.6316L57.2002 25.1154L61.1625 27.1098L62.8138 26.2815Z" fill="#3899D9"/>
<path d="M64.3333 24.094C64.5172 24.0256 64.7771 24.0337 64.941 24.1141C65.0969 24.1945 65.1209 24.3152 65.005 24.4076C65.0969 24.4197 65.1809 24.4519 65.2449 24.4921C65.3608 24.5725 65.3648 24.6811 65.2529 24.7615C65.2529 24.7615 65.2489 24.7615 65.2489 24.7655C65.1489 24.8379 64.941 24.8459 64.8171 24.7816L64.5652 24.657L64.4132 24.5806L64.1014 24.4237L64.0054 24.3755L63.8095 24.279C63.7135 24.2307 63.7055 24.1503 63.8015 24.102C63.8015 24.102 63.8015 24.102 63.8055 24.102C63.9534 24.0256 64.1853 24.0256 64.3333 24.094Z" fill="white"/>
<path d="M62.066 24.2187C62.154 24.1865 62.278 24.1906 62.3579 24.2308C62.4339 24.267 62.4419 24.3273 62.3859 24.3715C62.4299 24.3795 62.4699 24.3916 62.5019 24.4117C62.5578 24.4479 62.5578 24.5002 62.5059 24.5404C62.4579 24.5766 62.3579 24.5766 62.2979 24.5484L62.178 24.4881L62.106 24.4519L61.9581 24.3755L61.9141 24.3514L61.8221 24.3031C61.7742 24.279 61.7742 24.2428 61.8181 24.2187C61.8821 24.1865 61.9941 24.1865 62.066 24.2187Z" fill="white"/>
<path d="M62.0181 23.1371C62.154 23.0848 62.3499 23.0889 62.4739 23.1532C62.5938 23.2135 62.6058 23.306 62.5219 23.3743C62.5898 23.3864 62.6538 23.4065 62.7018 23.4387C62.7898 23.499 62.7897 23.5794 62.7098 23.6397C62.7098 23.6397 62.7098 23.6397 62.7058 23.6397C62.6298 23.692 62.4739 23.7 62.3819 23.6518L62.194 23.5553L62.082 23.499L61.8501 23.3824L61.7782 23.3462L61.6302 23.2738C61.5583 23.2376 61.5543 23.1773 61.6262 23.1411C61.7302 23.0848 61.9061 23.0848 62.0181 23.1371Z" fill="white"/>
<path d="M56.7887 22.0997C55.9211 21.6131 54.6096 21.0944 52.6904 20.7647C52.7504 20.7768 52.8184 20.7566 52.8384 20.7285C52.8584 20.6963 52.8264 20.6642 52.7664 20.6521C54.8375 21.006 56.2129 21.581 57.1006 22.0997C56.9966 22.0956 56.8927 22.0956 56.7887 22.0997Z" fill="#21599C"/>
<path d="M52.6143 20.6884C52.5984 20.7085 52.6104 20.7326 52.6423 20.7487C52.6543 20.7567 52.6703 20.7607 52.6863 20.7648C50.955 20.4672 49.7076 20.0209 48.8279 19.5786C48.3641 19.3453 48.0003 19.1121 47.7244 18.907C46.8488 18.2556 46.6009 17.7208 46.5929 17.6967C46.5769 17.6645 46.6169 17.6324 46.6808 17.6243C46.7448 17.6163 46.8088 17.6364 46.8208 17.6686C46.8248 17.6726 47.0687 18.2074 47.9203 18.8387C48.708 19.4217 50.1874 20.2139 52.7663 20.6522C52.7023 20.6401 52.6343 20.6562 52.6143 20.6884Z" fill="#21599C"/>
<path d="M52.8383 20.7286C52.8183 20.7608 52.7503 20.7769 52.6903 20.7648C52.6744 20.7608 52.6584 20.7567 52.6464 20.7487C52.6144 20.7326 52.6024 20.7085 52.6184 20.6884C52.6384 20.6562 52.7063 20.6401 52.7663 20.6522C52.8263 20.6643 52.8583 20.6964 52.8383 20.7286Z" fill="#21599C"/>
<path d="M51.355 21.4322C51.415 21.4442 51.4829 21.4281 51.5029 21.396C51.5229 21.3638 51.4909 21.3316 51.4309 21.3196C52.9103 21.5729 54.0379 21.9388 54.8855 22.3168C54.8055 22.3329 54.7296 22.353 54.6536 22.3731C53.8339 22.0152 52.7584 21.6734 51.355 21.4322Z" fill="#21599C"/>
<path d="M51.2828 21.36C51.2668 21.3801 51.2788 21.4042 51.3108 21.4203C51.3228 21.4283 51.3388 21.4324 51.3548 21.4364C49.6235 21.1429 48.376 20.6925 47.4964 20.2502C47.0326 20.017 46.6687 19.7837 46.3929 19.5787C45.5172 18.9273 45.2693 18.3925 45.2613 18.3683C45.2453 18.3362 45.2853 18.304 45.3493 18.296C45.4133 18.2879 45.4772 18.308 45.4892 18.3402C45.4932 18.3442 45.7371 18.879 46.5888 19.5103C47.3764 20.0934 48.8558 20.8855 51.4347 21.3238C51.3708 21.3117 51.3028 21.3278 51.2828 21.36Z" fill="#21599C"/>
<path d="M51.5028 21.3961C51.4828 21.4282 51.4149 21.4443 51.3549 21.4323C51.3389 21.4282 51.3229 21.4242 51.3109 21.4162C51.2789 21.4001 51.2669 21.376 51.2829 21.3559C51.3029 21.3237 51.3709 21.3076 51.4309 21.3197C51.4908 21.3317 51.5268 21.3679 51.5028 21.3961Z" fill="#21599C"/>
<path d="M50.0234 22.1038C50.0834 22.1159 50.1514 22.0958 50.1714 22.0676C50.1914 22.0354 50.1594 22.0033 50.0994 21.9912C51.4388 22.2204 52.4864 22.5421 53.3021 22.8799C53.2461 22.908 53.1941 22.9362 53.1421 22.9683C52.3465 22.6386 51.3229 22.329 50.0234 22.1038Z" fill="#21599C"/>
<path d="M49.9474 22.0314C49.9314 22.0515 49.9434 22.0756 49.9753 22.0917C49.9873 22.0997 50.0033 22.1038 50.0193 22.1078C48.2881 21.8142 47.0406 21.3639 46.1609 20.9216C45.6971 20.6884 45.3333 20.4551 45.0574 20.2501C44.1818 19.5987 43.9339 19.0639 43.9259 19.0397C43.9099 19.0076 43.9499 18.9754 44.0139 18.9673C44.0778 18.9593 44.1418 18.9794 44.1538 19.0116C44.1578 19.0156 44.4017 19.5504 45.2533 20.1817C46.041 20.7648 47.5204 21.5569 50.0993 21.9952C50.0353 21.9831 49.9713 21.9992 49.9474 22.0314Z" fill="#21599C"/>
<path d="M50.1713 22.0675C50.1513 22.0996 50.0833 22.1157 50.0234 22.1037C50.0074 22.0996 49.9914 22.0956 49.9794 22.0876C49.9474 22.0715 49.9354 22.0474 49.9514 22.0273C49.9714 21.9951 50.0394 21.979 50.0993 21.9911C50.1593 22.0031 50.1913 22.0353 50.1713 22.0675Z" fill="#21599C"/>
<path d="M48.8398 22.739C48.8598 22.7068 48.8278 22.6747 48.7679 22.6626C50.2752 22.9199 51.4147 23.2939 52.2664 23.6799C52.2344 23.7201 52.2064 23.7603 52.1784 23.8005C51.3388 23.4145 50.2073 23.0366 48.6919 22.7752C48.7519 22.7832 48.8158 22.7671 48.8398 22.739Z" fill="#21599C"/>
<path d="M42.6824 19.6348C42.7464 19.6268 42.8103 19.6469 42.8223 19.6791C42.8263 19.6831 43.0702 20.2179 43.9219 20.8492C44.7096 21.4322 46.1889 22.2244 48.7678 22.6627C48.7079 22.6506 48.6399 22.6707 48.6199 22.6989C48.6039 22.719 48.6159 22.7431 48.6479 22.7592C48.6599 22.7672 48.6759 22.7712 48.6919 22.7753C46.9606 22.4777 45.7131 22.0314 44.8335 21.5891C44.3697 21.3558 44.0058 21.1226 43.73 20.9175C42.8543 20.2661 42.6064 19.7313 42.5984 19.7072C42.5784 19.671 42.6184 19.6429 42.6824 19.6348Z" fill="#21599C"/>
<path d="M48.6159 22.6989C48.6359 22.6667 48.7039 22.6506 48.7639 22.6627C48.8239 22.6748 48.8598 22.7069 48.8358 22.7391C48.8159 22.7713 48.7479 22.7873 48.6879 22.7753C48.6719 22.7713 48.6559 22.7672 48.6439 22.7592C48.6119 22.7471 48.5999 22.723 48.6159 22.6989Z" fill="#21599C"/>
<path d="M53.374 22.8435C51.3988 23.8367 51.3988 25.4451 53.374 26.4383C55.3491 27.4315 58.5518 27.4315 60.5229 26.4383C62.4981 25.4451 62.4981 23.8367 60.5229 22.8435C58.5478 21.8503 55.3451 21.8503 53.374 22.8435ZM53.5819 22.9481C55.4411 22.0152 58.4518 22.0152 60.311 22.9481C62.1702 23.881 62.1702 25.3969 60.311 26.3298C58.4518 27.2626 55.4411 27.2626 53.5819 26.3298C51.7266 25.3969 51.7266 23.881 53.5819 22.9481Z" fill="#21599C"/>
<path d="M54.6174 23.4709C53.33 24.1183 53.33 25.1678 54.6174 25.8111C55.9049 26.4585 57.988 26.4585 59.2755 25.8111C60.5629 25.1637 60.5629 24.1143 59.2755 23.4709C57.988 22.8235 55.9049 22.8235 54.6174 23.4709ZM54.8453 23.5835C56.0049 23.0004 57.8881 23.0004 59.0476 23.5835C60.2071 24.1665 60.2071 25.1155 59.0476 25.6985C57.8881 26.2816 56.0049 26.2816 54.8453 25.6985C53.6858 25.1115 53.6858 24.1665 54.8453 23.5835Z" fill="#21599C"/>
<path d="M59.5596 25.9519C59.4476 26.0082 59.4476 26.0966 59.5596 26.1529C59.6715 26.2092 59.8514 26.2092 59.9594 26.1529C60.0713 26.0966 60.0713 26.0082 59.9594 25.9519C59.8514 25.8956 59.6715 25.8956 59.5596 25.9519Z" fill="#21599C"/>
<path d="M53.9336 23.125C53.8216 23.1813 53.8216 23.2697 53.9336 23.326C54.0455 23.3823 54.2255 23.3823 54.3334 23.326C54.4454 23.2697 54.4454 23.1813 54.3334 23.125C54.2255 23.0687 54.0455 23.0687 53.9336 23.125Z" fill="#21599C"/>
<path d="M58.5596 24.7897C58.4476 24.846 58.4476 24.9345 58.5596 24.9907C58.6715 25.047 58.8514 25.047 58.9594 24.9907C59.0713 24.9345 59.0713 24.846 58.9594 24.7897C58.8474 24.7374 58.6675 24.7374 58.5596 24.7897Z" fill="#21599C"/>
<path d="M57.3999 24.2107C57.2879 24.267 57.2879 24.3554 57.3999 24.4117C57.5118 24.468 57.6918 24.468 57.7997 24.4117C57.9117 24.3554 57.9117 24.267 57.7997 24.2107C57.6918 24.1544 57.5118 24.1544 57.3999 24.2107Z" fill="#21599C"/>
<path d="M56.2446 23.6277C56.1327 23.684 56.1327 23.7724 56.2446 23.8287C56.3566 23.885 56.5365 23.885 56.6444 23.8287C56.7564 23.7724 56.7564 23.684 56.6444 23.6277C56.5365 23.5714 56.3566 23.5714 56.2446 23.6277Z" fill="#21599C"/>
<path d="M57.1162 25.5173C57.0042 25.5736 57.0042 25.6621 57.1162 25.7184C57.2281 25.7747 57.4081 25.7747 57.516 25.7184C57.628 25.6621 57.628 25.5736 57.516 25.5173C57.4081 25.461 57.2281 25.461 57.1162 25.5173Z" fill="#21599C"/>
<path d="M55.9609 24.9343C55.849 24.9906 55.849 25.0791 55.9609 25.1354C56.0729 25.1917 56.2528 25.1917 56.3607 25.1354C56.4727 25.0791 56.4727 24.9906 56.3607 24.9343C56.2488 24.878 56.0729 24.878 55.9609 24.9343Z" fill="#21599C"/>
<path d="M54.8012 24.3513C54.6893 24.4076 54.6893 24.4961 54.8012 24.5524C54.9132 24.6086 55.0931 24.6086 55.2011 24.5524C55.313 24.4961 55.313 24.4076 55.2011 24.3513C55.0931 24.295 54.9132 24.295 54.8012 24.3513Z" fill="#21599C"/>
<path d="M25.1455 4.31459L37.4563 10.507L37.8402 10.314L25.5293 4.12158L25.1455 4.31459Z" fill="#21599C"/>
<path d="M23.938 4.92165L36.2488 11.114L36.6326 10.921L24.3218 4.73267L23.938 4.92165Z" fill="#21599C"/>
<path d="M22.7305 5.53285L35.0413 11.7212L35.4211 11.5282L23.1143 5.33984L22.7305 5.53285Z" fill="#21599C"/>
<path d="M21.5229 6.14003L33.8338 12.3284L34.2136 12.1354L21.9068 5.94702L21.5229 6.14003Z" fill="#21599C"/>
<path d="M41.0112 25.4372L53.322 31.6295L53.7059 31.4365L41.3951 25.2441L41.0112 25.4372Z" fill="#21599C"/>
<path d="M39.8037 26.0443L52.1145 32.2367L52.4944 32.0437L40.1875 25.8513L39.8037 26.0443Z" fill="#21599C"/>
<path d="M38.5962 26.6515L50.903 32.8439L51.2868 32.6509L38.98 26.4585L38.5962 26.6515Z" fill="#21599C"/>
<path d="M37.3887 27.2586L49.6955 33.451L50.0793 33.258L37.7685 27.0696L37.3887 27.2586Z" fill="#21599C"/>
<path d="M28.5483 23.4507L28.8322 23.5955L30.8074 22.6023L30.5235 22.4575L28.5483 23.4507Z" fill="#21599C"/>
<path d="M27.7485 23.0486L28.0284 23.1934L30.0076 22.2002L29.7237 22.0554L27.7485 23.0486Z" fill="#21599C"/>
<path d="M26.9448 22.6465L27.2287 22.7913L27.9684 22.4173L27.6845 22.2766L26.9448 22.6465Z" fill="#21599C"/>
<path d="M26.1455 22.2444L26.4294 22.3852L27.1691 22.0152L26.8852 21.8745L26.1455 22.2444Z" fill="#21599C"/>
<path d="M25.3457 21.8423L25.6296 21.9831L26.3693 21.6131L26.0854 21.4724L25.3457 21.8423Z" fill="#21599C"/>
<path d="M24.5459 21.4402L24.8298 21.581L25.5695 21.211L25.2856 21.0703L24.5459 21.4402Z" fill="#21599C"/>
<path d="M23.7466 21.0383L24.0305 21.179L24.7662 20.8091L24.4863 20.6643L23.7466 21.0383Z" fill="#21599C"/>
<path d="M22.9468 20.6362L23.2307 20.7769L23.9663 20.407L23.6825 20.2622L22.9468 20.6362Z" fill="#21599C"/>
<path d="M22.1431 20.2339L22.4269 20.3747L24.4061 19.3815L24.1222 19.2407L22.1431 20.2339Z" fill="#21599C"/>
<path d="M21.3433 19.8319L21.6271 19.9727L23.6063 18.9795L23.3224 18.8347L21.3433 19.8319Z" fill="#21599C"/>
<path d="M20.5439 19.4299L20.8278 19.5706L21.5675 19.2007L21.2836 19.0559L20.5439 19.4299Z" fill="#21599C"/>
<path d="M19.7441 19.0237L20.028 19.1685L20.7677 18.7986L20.4838 18.6538L19.7441 19.0237Z" fill="#21599C"/>
<path d="M18.9443 18.6216L19.2282 18.7664L21.2034 17.7732L20.9195 17.6284L18.9443 18.6216Z" fill="#21599C"/>
<path d="M18.1445 18.2193L18.4284 18.3641L19.1641 17.9901L18.8842 17.8494L18.1445 18.2193Z" fill="#21599C"/>
<path d="M17.3452 17.8174L17.6291 17.9622L19.6043 16.969L19.3204 16.8242L17.3452 17.8174Z" fill="#21599C"/>
<path d="M16.5415 17.4153L16.8254 17.5601L18.8046 16.5629L18.5207 16.4221L16.5415 17.4153Z" fill="#21599C"/>
<path d="M15.7417 17.0132L16.0256 17.158L18.0047 16.1608L17.7209 16.02L15.7417 17.0132Z" fill="#21599C"/>
<path d="M14.9419 16.6111L15.2258 16.7519L17.2009 15.7587L16.9171 15.6179L14.9419 16.6111Z" fill="#21599C"/>
<path d="M14.1426 16.2088L14.4265 16.3495L15.1661 15.9796L14.8823 15.8389L14.1426 16.2088Z" fill="#21599C"/>
<path d="M13.3428 15.8068L13.6267 15.9476L14.3663 15.5776L14.0825 15.4329L13.3428 15.8068Z" fill="#21599C"/>
<path d="M12.543 15.4047L12.8268 15.5455L13.5625 15.1755L13.2787 15.0308L12.543 15.4047Z" fill="#21599C"/>
<path d="M11.7437 15.0026L12.0275 15.1434L12.7632 14.7734L12.4793 14.6287L11.7437 15.0026Z" fill="#21599C"/>
<path d="M10.9399 14.6005L11.2238 14.7413L11.9635 14.3713L11.6796 14.2266L10.9399 14.6005Z" fill="#21599C"/>
<path d="M10.1401 14.1984L10.424 14.3391L12.3992 13.3459L12.1193 13.2012L10.1401 14.1984Z" fill="#21599C"/>
</g>
<defs>
<clipPath id="clip0_65_1258">
<rect width="76" height="39" fill="white"/>
</clipPath>
</defs>
</svg>
