<svg width="76" height="42" viewBox="0 0 76 42" fill="none" xmlns="http://www.w3.org/2000/svg">
<path d="M67.7798 11.46L53.4898 18.61L44.8598 14.29L8.0498 31.36L30.9798 41.87L48.9598 33.51C50.7598 32.67 52.5298 31.78 54.2798 30.83L67.7798 23.46L71.8598 14.6V14.28L67.7798 11.46Z" fill="#488DEF"/>
<path d="M26.6098 37.1399L30.9798 41.8699L21.7798 38.2199L26.6098 37.1399Z" fill="#056CC1"/>
<path d="M30.9799 41.8701L32.1199 33.6201L26.6099 37.1401L30.9799 41.8701Z" fill="#1A79D8"/>
<path d="M67.7801 23.4601L66.3501 16.5601L71.8601 14.6101L67.7801 23.4601Z" fill="#1A79D8"/>
<path d="M49.3501 3.34008L71.8601 14.6101L75.2101 13.0901V12.7801L52.6901 1.83008L49.3501 3.03008V3.34008Z" fill="#1A79D8"/>
<path d="M49.3501 3.03001L71.8601 14.29L75.2101 12.78L52.6901 1.51001L49.3501 3.03001Z" fill="#69AAF7"/>
<path d="M26.6099 36.83V37.14L32.1199 33.62L66.3499 16.56L71.8599 14.61V14.29L67.7799 11.46L33.2599 23.98L26.6099 36.83Z" fill="#2E89E5"/>
<path d="M0 27.9299L22.51 39.1899L26.61 37.1399V36.8299L4.09 25.8799L0 27.6099V27.9299Z" fill="#1A79D8"/>
<path d="M0 27.6101L22.51 38.8801L26.61 36.8301L4.09 25.5601L0 27.6101Z" fill="#70B0EF"/>
<path d="M8.0498 18.4L30.9798 29.87L42.2898 23.42C46.5798 20.98 50.9898 18.77 55.5098 16.8L67.7798 11.46L44.8598 0C44.8598 0 33.5498 4.65 27.5498 7.72C20.9598 11.09 8.0498 18.4 8.0498 18.4Z" fill="#488DEF"/>
<path d="M4.08984 25.5599L8.04984 18.3999L30.9798 29.8699L26.6098 36.8299L4.08984 25.5599Z" fill="#53A2F2"/>
<path d="M16.73 34.53L18.66 33.35C18.96 33.17 19.2 32.91 19.37 32.6L22.87 26.12C22.96 25.96 23.09 25.82 23.25 25.72L26.14 23.96L28.38 24.99L25.41 26.88C25.27 26.97 25.15 27.1 25.06 27.25L21.44 33.68C21.28 33.96 21.07 34.19 20.8 34.36L18.95 35.58L16.73 34.53Z" fill="#FFCF5A"/>
<path d="M34.6898 25.23L30.4898 23.13C30.3498 23.06 30.3498 22.94 30.4898 22.87L38.6498 18.79C38.7898 18.72 39.0198 18.72 39.1698 18.79L43.3698 20.89C43.5098 20.96 43.5098 21.08 43.3698 21.15L35.2098 25.23C35.0698 25.3 34.8398 25.3 34.6898 25.23Z" fill="#2C323D"/>
<path d="M42.9597 21.15L35.2097 25.03C35.0697 25.1 34.8397 25.1 34.6897 25.03L30.8897 23.13C30.7497 23.06 30.7497 22.94 30.8897 22.87L38.6397 18.99C38.7797 18.92 39.0097 18.92 39.1597 18.99L42.9597 20.89C43.1097 20.96 43.1097 21.08 42.9597 21.15Z" fill="white"/>
<path d="M35.4297 24.4703L35.1297 24.6203L31.7397 22.9203L32.0397 22.7803L35.4297 24.4703Z" fill="#2C323D"/>
<path d="M37.1998 23.5801L36.8998 23.7301L33.5098 22.0401L33.8098 21.8901L37.1998 23.5801Z" fill="#2C323D"/>
<path d="M37.4097 23.4803L37.3197 23.5203L33.9297 21.8303L34.0197 21.7803L37.4097 23.4803Z" fill="#2C323D"/>
<path d="M37.6096 23.3802L37.5096 23.4302L34.1196 21.7302L34.2196 21.6802L37.6096 23.3802Z" fill="#2C323D"/>
<path d="M38.5999 22.8802L38.4999 22.9302L35.1099 21.2402L35.2099 21.1902L38.5999 22.8802Z" fill="#2C323D"/>
<path d="M35.75 24.3101L35.6 24.3801L32.21 22.6901L32.36 22.6101L35.75 24.3101Z" fill="#2C323D"/>
<path d="M38.0499 23.1602L37.7499 23.3102L34.3599 21.6102L34.6599 21.4602L38.0499 23.1602Z" fill="#2C323D"/>
<path d="M38.3698 23.0003L38.2298 23.0703L34.8398 21.3803L34.9898 21.3003L38.3698 23.0003Z" fill="#2C323D"/>
<path d="M36.0796 24.1402L35.9296 24.2202L32.5396 22.5202L32.6896 22.4502L36.0796 24.1402Z" fill="#2C323D"/>
<path d="M36.3999 23.9803L36.2499 24.0603L32.8599 22.3603L33.0099 22.2903L36.3999 23.9803Z" fill="#2C323D"/>
<path d="M36.7299 23.8201L36.5799 23.8901L33.1899 22.2001L33.3399 22.1201L36.7299 23.8201Z" fill="#2C323D"/>
<path d="M38.46 19.5702L38.75 19.4202L42.14 21.1102L41.85 21.2602L38.46 19.5702Z" fill="#2C323D"/>
<path d="M36.6797 20.45L36.9797 20.3L40.3697 22L40.0697 22.15L36.6797 20.45Z" fill="#2C323D"/>
<path d="M36.4697 20.5603L36.5597 20.5103L39.9497 22.2103L39.8597 22.2503L36.4697 20.5603Z" fill="#2C323D"/>
<path d="M36.27 20.6601L36.37 20.6101L39.76 22.3001L39.66 22.3501L36.27 20.6601Z" fill="#2C323D"/>
<path d="M35.2798 21.1501L35.3798 21.1001L38.7698 22.8001L38.6698 22.8501L35.2798 21.1501Z" fill="#2C323D"/>
<path d="M38.1299 19.7301L38.2799 19.6501L41.6699 21.3501L41.5199 21.4201L38.1299 19.7301Z" fill="#2C323D"/>
<path d="M35.8296 20.8802L36.1296 20.7302L39.5196 22.4202L39.2196 22.5702L35.8296 20.8802Z" fill="#2C323D"/>
<path d="M35.5098 21.0402L35.6598 20.9702L39.0498 22.6602L38.8998 22.7302L35.5098 21.0402Z" fill="#2C323D"/>
<path d="M37.8096 19.8901L37.9496 19.8201L41.3396 21.5101L41.1896 21.5901L37.8096 19.8901Z" fill="#2C323D"/>
<path d="M37.48 20.0502L37.63 19.9802L41.02 21.6702L40.87 21.7502L37.48 20.0502Z" fill="#2C323D"/>
<path d="M37.1499 20.2201L37.2999 20.1401L40.6899 21.8401L40.5399 21.9101L37.1499 20.2201Z" fill="#2C323D"/>
<path d="M40.3998 9.42991L34.5498 6.48991C34.4098 6.41991 34.4098 6.29991 34.5498 6.22991L42.7098 2.14991C42.8498 2.07991 43.0798 2.07991 43.2298 2.14991L49.0798 5.08991C49.2198 5.15991 49.2198 5.27991 49.0798 5.34991L40.9198 9.42991C40.7698 9.49991 40.5398 9.49991 40.3998 9.42991Z" fill="#961010"/>
<path d="M48.6697 5.34986L40.9197 9.22986C40.7797 9.29986 40.5497 9.29986 40.3997 9.22986L34.9497 6.48986C34.8097 6.41986 34.8097 6.29986 34.9497 6.22986L42.6997 2.34986C42.8397 2.27986 43.0697 2.27986 43.2197 2.34986L48.6697 5.08986C48.8097 5.16986 48.8097 5.27986 48.6697 5.34986Z" fill="white"/>
<path d="M42.4799 3.1398L35.8099 6.4798L35.6299 6.3798L42.2899 3.0498L42.4799 3.1398Z" fill="#2C323D"/>
<path d="M42.9101 3.35978L36.2501 6.68977L36.0601 6.59978L42.7301 3.26978L42.9101 3.35978Z" fill="#2C323D"/>
<path d="M43.35 3.57974L36.68 6.90974L36.5 6.81974L43.16 3.47974L43.35 3.57974Z" fill="#2C323D"/>
<path d="M43.7797 3.78971L37.1097 7.12971L36.9297 7.03971L43.5997 3.69971L43.7797 3.78971Z" fill="#2C323D"/>
<path d="M44.2201 4.00992L37.5501 7.33992L37.3701 7.24992L44.0301 3.91992L44.2201 4.00992Z" fill="#2C323D"/>
<path d="M47.0101 4.56998L42.8101 6.66998L42.6201 6.57998L46.8201 4.47998L47.0101 4.56998Z" fill="#2C323D"/>
<path d="M47.4401 4.78995L43.2401 6.88995L43.0601 6.79995L47.2601 4.69995L47.4401 4.78995Z" fill="#2C323D"/>
<path d="M47.8797 5.00991L43.6697 7.10991L43.4897 7.01991L47.6898 4.90991L47.8797 5.00991Z" fill="#2C323D"/>
<path d="M45.7599 4.01001L38.1699 7.81001L38.2599 7.86001L45.8599 4.06001L45.7599 4.01001Z" fill="#961010"/>
<path d="M15.43 15.7199L15.1 15.6499C15.05 15.6399 14.99 15.6699 15.01 15.6899L15.13 15.8599L14.79 15.7999C14.74 15.7899 14.68 15.8199 14.7 15.8399L14.82 16.0099L14.48 15.9499C14.43 15.9399 14.37 15.9699 14.39 15.9899L14.51 16.1599L14.17 16.0999C14.12 16.0899 14.06 16.1199 14.08 16.1399L14.2 16.3099L13.86 16.2499C13.81 16.2399 13.75 16.2699 13.77 16.2899L13.89 16.4599L13.58 16.4199C13.53 16.4099 13.47 16.4399 13.49 16.4599L13.61 16.6299L13.27 16.5699C13.22 16.5599 13.16 16.5899 13.18 16.6099L13.3 16.7799L12.97 16.7199C12.92 16.7099 12.86 16.7399 12.88 16.7599L13 16.9299L12.66 16.8699C12.61 16.8599 12.55 16.8899 12.57 16.9099L12.69 17.0799L12.35 17.0199C12.3 17.0099 12.24 17.0399 12.26 17.0599L12.38 17.2299L12.04 17.1699C11.99 17.1599 11.93 17.1899 11.95 17.2099L12.07 17.3799L11.73 17.3199C11.68 17.3099 11.62 17.3399 11.64 17.3599L11.78 17.5499L11.44 17.4899C11.39 17.4799 11.33 17.5099 11.35 17.5299L11.47 17.6999L11.13 17.6399C11.08 17.6299 11.02 17.6599 11.04 17.6799L11.16 17.8499L10.82 17.7899C10.77 17.7799 10.71 17.8099 10.73 17.8299L10.85 17.9999L10.51 17.9399C10.46 17.9299 10.4 17.9599 10.42 17.9799L10.54 18.1499L18.94 22.3499L19.28 22.4099C19.33 22.4199 19.39 22.3899 19.37 22.3699L19.25 22.1999L19.59 22.2599C19.64 22.2699 19.7 22.2399 19.68 22.2199L19.56 22.0499L19.9 22.1099C19.95 22.1199 20.01 22.0899 19.99 22.0699L19.87 21.8999L20.21 21.9599C20.26 21.9699 20.32 21.9399 20.3 21.9199L20.18 21.7499L20.52 21.8099C20.57 21.8199 20.63 21.7899 20.61 21.7699L20.49 21.5999L20.83 21.6599C20.88 21.6699 20.94 21.6399 20.92 21.6199L20.8 21.4499L21.14 21.5099C21.19 21.5199 21.25 21.4899 21.23 21.4699L21.11 21.2999L21.45 21.3599C21.5 21.3699 21.56 21.3399 21.54 21.3199L21.42 21.1499L21.76 21.2099C21.81 21.2199 21.87 21.1899 21.85 21.1699L21.73 20.9999L22.07 21.0599C22.12 21.0699 22.18 21.0399 22.16 21.0199L22.04 20.8499L22.38 20.9099C22.43 20.9199 22.49 20.8899 22.47 20.8699L22.35 20.6999L22.69 20.7599C22.74 20.7699 22.8 20.7399 22.78 20.7199L22.66 20.5499L23 20.6099C23.05 20.6199 23.11 20.5899 23.09 20.5699L22.97 20.3999L23.31 20.4599C23.36 20.4699 23.42 20.4399 23.4 20.4199L23.28 20.2499L23.62 20.3099C23.67 20.3199 23.73 20.2899 23.71 20.2699L23.59 20.0999L23.93 20.1599C23.98 20.1699 24.04 20.1399 24.02 20.1199L23.9 19.9499H23.89L15.43 15.7199Z" fill="white"/>
<path d="M17.0901 18.9799C16.1301 19.4599 16.1301 20.2399 17.0901 20.7299C18.0501 21.2099 19.6201 21.2099 20.5801 20.7299C21.5401 20.2499 21.5401 19.4699 20.5801 18.9799C19.6201 18.4999 18.0501 18.4999 17.0901 18.9799ZM20.4101 20.6399C19.5401 21.0799 18.1201 21.0799 17.2501 20.6399C16.3801 20.1999 16.3801 19.4999 17.2501 19.0599C18.1201 18.6199 19.5401 18.6199 20.4101 19.0599C21.2901 19.4999 21.2901 20.2099 20.4101 20.6399Z" fill="#259940"/>
<path d="M17.14 20.1099L16.96 20.0199L19.17 18.9099L19.35 19.0099L17.14 20.1099Z" fill="#259940"/>
<path d="M17.6199 20.3499L17.4399 20.2599L19.6499 19.1499L19.8299 19.2499L17.6199 20.3499Z" fill="#259940"/>
<path d="M18.0999 20.5899L17.9199 20.4999L20.1299 19.3899L20.3099 19.4899L18.0999 20.5899Z" fill="#259940"/>
<path d="M18.5801 20.8299L18.3901 20.7399L20.6001 19.6299L20.7901 19.7299L18.5801 20.8299Z" fill="#259940"/>
<path d="M13.3101 17.7198L13.1201 17.6298L15.7301 16.3198L15.9201 16.4198L13.3101 17.7198Z" fill="#259940"/>
<path d="M13.7801 17.9598L13.6001 17.8698L16.2101 16.5598L16.4001 16.6598L13.7801 17.9598Z" fill="#259940"/>
<path d="M14.2601 18.1998L14.0801 18.1098L16.6901 16.7998L16.8801 16.8998L14.2601 18.1998Z" fill="#259940"/>
<path d="M14.7401 18.4398L14.5601 18.3498L17.1701 17.0398L17.3601 17.1298L14.7401 18.4398Z" fill="#259940"/>
</svg>
