<svg width="74" height="42" viewBox="0 0 74 42" fill="none" xmlns="http://www.w3.org/2000/svg">
<path d="M73.6799 20.87L31.5898 41.87V36.74L73.6799 15.75V20.87Z" fill="#488DEF"/>
<path d="M31.59 41.87L0 26.12V20.99L31.59 36.75V41.87Z" fill="#056CC1"/>
<path d="M73.68 15.75L31.59 36.75L0 20.98L42.09 0L73.68 15.75Z" fill="#53A2F2"/>
<path d="M31.59 36.81L0 21.05V20.99L0.0599976 20.96L31.59 36.69V36.81Z" fill="#F0C673"/>
<path d="M31.5898 36.81L73.6799 15.81V15.75L73.6199 15.72L31.5898 36.69V36.81Z" fill="#F0DAAF"/>
<path d="M19.2802 33.65L15.4102 31.72V28.73L19.2802 30.66V33.65Z" fill="#1A79D8"/>
<path d="M15.4102 28.73L19.2702 30.66L61.6202 9.72003L57.7502 7.78003L15.4102 28.73Z" fill="#2E89E5"/>
<path d="M16.4098 19.4701L10.1298 22.6401L5.81982 20.5301L12.0998 17.3601L16.4098 19.4701Z" fill="white"/>
<path d="M10.39 21.7601L10.24 21.8301L7.43994 20.4601L7.58994 20.3901L10.39 21.7601Z" fill="#5B677E"/>
<path d="M10.5699 21.67L10.49 21.71L7.68994 20.34L7.76996 20.3L10.5699 21.67Z" fill="#5B677E"/>
<path d="M10.7401 21.5802L10.6701 21.6202L7.87012 20.2502L7.95013 20.2102L10.7401 21.5802Z" fill="#5B677E"/>
<path d="M10.9198 21.4901L10.8398 21.5301L8.0498 20.1601L8.11978 20.1201L10.9198 21.4901Z" fill="#5B677E"/>
<path d="M11.0997 21.4003L11.0197 21.4403L8.21973 20.0703L8.29974 20.0303L11.0997 21.4003Z" fill="#5B677E"/>
<path d="M11.3499 21.2701L11.1999 21.3501L8.3999 19.9801L8.54993 19.9001L11.3499 21.2701Z" fill="#5B677E"/>
<path d="M12.0302 20.9301L11.9601 20.9701L9.16016 19.6001L9.24017 19.5601L12.0302 20.9301Z" fill="#5B677E"/>
<path d="M12.2098 20.8402L12.1299 20.8802L9.33984 19.5102L9.40985 19.4702L12.2098 20.8402Z" fill="#5B677E"/>
<path d="M12.4597 20.7101L12.3098 20.7901L9.50977 19.4201L9.66977 19.3401L12.4597 20.7101Z" fill="#5B677E"/>
<path d="M11.5999 21.1503L11.4499 21.2203L8.6499 19.8503L8.80991 19.7703L11.5999 21.1503Z" fill="#5B677E"/>
<path d="M11.8602 21.0201L11.7002 21.1001L8.91016 19.7201L9.06015 19.6501L11.8602 21.0201Z" fill="#5B677E"/>
<path d="M12.72 20.5902L12.56 20.6602L9.77002 19.2902L9.92001 19.2102L12.72 20.5902Z" fill="#5B677E"/>
<path d="M12.89 20.5001L12.82 20.5301L10.02 19.1601L10.09 19.1301L12.89 20.5001Z" fill="#5B677E"/>
<path d="M13.0697 20.4103L12.9897 20.4503L10.1997 19.0703L10.2697 19.0403L13.0697 20.4103Z" fill="#5B677E"/>
<path d="M13.2501 20.3202L13.1701 20.3602L10.3701 18.9902L10.4501 18.9502L13.2501 20.3202Z" fill="#5B677E"/>
<path d="M13.4198 20.2301L13.3498 20.2701L10.5498 18.9001L10.6198 18.8601L13.4198 20.2301Z" fill="#5B677E"/>
<path d="M13.6697 20.1002L13.5197 20.1802L10.7197 18.8102L10.8797 18.7302L13.6697 20.1002Z" fill="#5B677E"/>
<path d="M14.36 19.7601L14.28 19.8001L11.48 18.4201L11.56 18.3901L14.36 19.7601Z" fill="#5B677E"/>
<path d="M14.5302 19.67L14.4601 19.71L11.6602 18.34L11.7402 18.3L14.5302 19.67Z" fill="#5B677E"/>
<path d="M14.7899 19.5402L14.6299 19.6202L11.8398 18.2502L11.9899 18.1702L14.7899 19.5402Z" fill="#5B677E"/>
<path d="M13.93 19.9701L13.78 20.0501L10.98 18.6801L11.13 18.6001L13.93 19.9701Z" fill="#5B677E"/>
<path d="M14.18 19.8502L14.03 19.9202L11.23 18.5502L11.38 18.4802L14.18 19.8502Z" fill="#5B677E"/>
<path d="M24.8698 22.2099L16.3799 26.4599L12.3398 24.4399L20.8299 20.1899L24.8698 22.2099Z" fill="white"/>
<path d="M60.24 17.98L57.8199 19.19C57.7299 19.23 57.7299 19.31 57.8199 19.35L60.24 20.56C60.33 20.6 60.4799 20.6 60.5699 20.56L62.99 19.35C63.08 19.31 63.08 19.23 62.99 19.19L60.5699 17.98C60.4799 17.94 60.33 17.94 60.24 17.98ZM62.73 19.19C62.82 19.24 62.82 19.31 62.73 19.36L60.5699 20.44C60.4799 20.49 60.33 20.49 60.24 20.44L58.08 19.36C57.99 19.31 57.99 19.24 58.08 19.19L60.24 18.11C60.33 18.06 60.4799 18.06 60.5699 18.11L62.73 19.19Z" fill="#5B677E"/>
<path d="M60.8203 19.9301L60.6703 20.0001L59.0103 19.1701L59.1603 19.0901L60.8203 19.9301Z" fill="#5B677E"/>
<path d="M58.8701 19.02L59.0801 19.34L59.2901 19.23L59.4901 19.13L58.8701 19.02Z" fill="#5B677E"/>
<path d="M61.86 19.4101L61.71 19.4801L60.04 18.6501L60.2 18.5801L61.86 19.4101Z" fill="#5B677E"/>
<path d="M59.8999 18.51L60.1099 18.82L60.3199 18.72L60.5299 18.61L59.8999 18.51Z" fill="#5B677E"/>
<path d="M60.5499 20.29L60.3999 20.21L62.2799 19.27L62.4299 19.35L60.5499 20.29Z" fill="#5B677E"/>
<path d="M63.4998 16.3498L61.0797 17.5598C60.9897 17.5998 60.9897 17.6798 61.0797 17.7198L63.4998 18.9298C63.5898 18.9698 63.7397 18.9698 63.8297 18.9298L66.2498 17.7198C66.3398 17.6798 66.3398 17.5998 66.2498 17.5598L63.8297 16.3498C63.7297 16.3098 63.5898 16.3098 63.4998 16.3498ZM65.9897 17.5598C66.0797 17.6098 66.0797 17.6798 65.9897 17.7298L63.8297 18.8098C63.7397 18.8598 63.5898 18.8598 63.4998 18.8098L61.3397 17.7298C61.2497 17.6798 61.2497 17.6098 61.3397 17.5598L63.4998 16.4798C63.5898 16.4298 63.7397 16.4298 63.8297 16.4798L65.9897 17.5598Z" fill="#5B677E"/>
<path d="M64.39 17.4399C64.19 17.5399 63.85 17.5399 63.65 17.4399L62.79 17.0099L63.53 16.6399L64.39 17.0699C64.59 17.1699 64.59 17.3399 64.39 17.4399Z" fill="#5B677E"/>
<path d="M65.29 17.8399L65.2 17.8899L64.3101 17.4399L64.39 17.3999L65.29 17.8399Z" fill="#5B677E"/>
<path d="M64.9301 18.0798C64.8801 18.0598 64.8801 18.0198 64.9301 17.9898L65.5001 17.7098C65.5501 17.6898 65.6301 17.6898 65.6701 17.7098L64.9301 18.0798Z" fill="#5B677E"/>
<path d="M61.6499 17.58L62.5099 18.01C62.7099 18.11 63.0499 18.11 63.2499 18.01C63.4499 17.91 63.4499 17.74 63.2499 17.64L62.3899 17.21L61.6499 17.58ZM63.1699 17.68C63.3299 17.76 63.3299 17.89 63.1699 17.97C63.0099 18.05 62.7399 18.05 62.5799 17.97L61.7999 17.58L62.3899 17.29L63.1699 17.68Z" fill="#5B677E"/>
<path d="M64.1497 18.42L64.0597 18.46L63.1597 18.01L63.2497 17.97L64.1497 18.42Z" fill="#5B677E"/>
<path d="M63.7899 18.6499C63.7399 18.6299 63.7399 18.5899 63.7899 18.5599L64.3599 18.2799C64.4099 18.2599 64.4899 18.2599 64.5299 18.2799L63.7899 18.6499Z" fill="#5B677E"/>
<path d="M66.7498 14.7299L64.3297 15.9399C64.2397 15.9799 64.2397 16.0599 64.3297 16.0999L66.7498 17.3099C66.8398 17.3499 66.9897 17.3499 67.0797 17.3099L69.4998 16.0999C69.5898 16.0599 69.5898 15.9799 69.4998 15.9399L67.0797 14.7299C66.9897 14.6799 66.8398 14.6799 66.7498 14.7299ZM69.2397 15.9299C69.3297 15.9799 69.3297 16.0499 69.2397 16.0999L67.0797 17.1799C66.9897 17.2299 66.8398 17.2299 66.7498 17.1799L64.5897 16.0999C64.4997 16.0499 64.4997 15.9799 64.5897 15.9299L66.7498 14.8499C66.8398 14.7999 66.9897 14.7999 67.0797 14.8499L69.2397 15.9299Z" fill="#5B677E"/>
<path d="M66.3699 16.24C66.3799 16.17 66.4298 16.11 66.5298 16.06C66.6298 16.01 66.7598 15.98 66.8898 15.98C66.8998 15.91 66.9498 15.85 67.0498 15.8C67.1499 15.75 67.2798 15.72 67.4098 15.72C67.4198 15.65 67.4698 15.59 67.5698 15.54C67.5898 15.53 67.6198 15.52 67.6398 15.51C67.1698 15.31 66.4698 15.32 66.0298 15.55C65.5898 15.77 65.5598 16.12 65.9598 16.36C65.9698 16.35 65.9899 16.34 65.9999 16.34C66.1099 16.27 66.2399 16.24 66.3699 16.24Z" fill="#5B677E"/>
<path d="M67.8899 16.64C67.7699 16.7 67.56 16.7 67.44 16.64L67.3999 16.62C67.3699 16.61 67.3699 16.59 67.3999 16.57C67.4299 16.56 67.47 16.56 67.49 16.57L67.5299 16.59C67.5999 16.63 67.72 16.63 67.8 16.59C67.87 16.55 67.87 16.49 67.8 16.46L65.92 15.52C65.89 15.51 65.89 15.49 65.92 15.47C65.95 15.45 65.9899 15.46 66.0099 15.47L67.8899 16.41C68.0099 16.48 68.0099 16.58 67.8899 16.64Z" fill="#5B677E"/>
<path d="M43.3202 1.74012L36.1902 5.30012L35.9702 5.19012L43.1002 1.62012L43.3202 1.74012Z" fill="#5B677E"/>
<path d="M44.0204 2.09021L36.8904 5.65021L36.6704 5.54021L43.8004 1.97021L44.0204 2.09021Z" fill="#5B677E"/>
<path d="M44.7201 2.44007L37.5901 6.00007L37.3701 5.89007L44.5001 2.32007L44.7201 2.44007Z" fill="#5B677E"/>
<path d="M45.4203 2.79017L38.2903 6.35017L38.0703 6.24017L45.2003 2.67017L45.4203 2.79017Z" fill="#5B677E"/>
<path d="M35.9198 30.35L28.7898 33.92L28.5698 33.81L35.6998 30.24L35.9198 30.35Z" fill="#5B677E"/>
<path d="M36.62 30.7001L29.49 34.2701L29.27 34.1601L36.4 30.5901L36.62 30.7001Z" fill="#5B677E"/>
<path d="M37.3297 31.0499L30.1897 34.6199L29.9697 34.5099L37.0997 30.9399L37.3297 31.0499Z" fill="#5B677E"/>
<path d="M38.0299 31.4L30.8899 34.97L30.6699 34.86L37.7999 31.29L38.0299 31.4Z" fill="#5B677E"/>
</svg>
