<svg width="53" height="45" viewBox="0 0 53 45" fill="none" xmlns="http://www.w3.org/2000/svg">
<path d="M26.11 0L0 15.07L26.68 30.48L52.77 15.41L52.78 15.4L26.11 0Z" fill="#A6CAF4"/>
<path d="M26.11 0.409912L0.709961 15.0699L26.68 29.9599L52.08 15.3999L26.11 0.409912Z" fill="#53A2F2"/>
<path d="M26.68 30.4801V44.2701L15.23 37.7101L10.59 35.0501L0 28.9901V15.0701L26.68 30.4801Z" fill="#056CC1"/>
<path d="M26.6802 30.4799V44.2599L52.7702 29.2899V15.4099L26.6802 30.4799Z" fill="#488DEF"/>
<path d="M30.16 38.9598L30.02 39.0398V36.6198L30.16 36.5398V38.9598Z" fill="#4F2E16"/>
<path d="M30.66 36.7799L30.56 36.9499L30.09 36.6399L29.62 37.4899L29.52 37.4399L30.09 36.3999L30.66 36.7799Z" fill="#4F2E16"/>
<path d="M31.5499 38.1597L31.4199 38.2397V35.8097L31.5499 35.7297V38.1597Z" fill="#4F2E16"/>
<path d="M32.0599 35.9799L31.9499 36.1499L31.4899 35.8299L31.0199 36.6899L30.9199 36.6299L31.4899 35.5999L32.0599 35.9799Z" fill="#4F2E16"/>
<path d="M32.0899 37.9298L29.4899 39.4298C29.4499 39.4498 29.4199 39.4298 29.4199 39.3898C29.4199 39.3498 29.4499 39.2898 29.4899 39.2698L32.0899 37.7698C32.1299 37.7498 32.1599 37.7698 32.1599 37.8098C32.1599 37.8498 32.1299 37.9098 32.0899 37.9298Z" fill="#4F2E16"/>
<path d="M32.07 38.5899L29.51 40.0699C29.24 40.2299 29.02 40.0999 29.02 39.7899V36.8399C29.02 36.5299 29.24 36.1499 29.51 35.9899L32.07 34.5099C32.34 34.3599 32.56 34.4799 32.56 34.7899V37.7499C32.56 38.0499 32.34 38.4299 32.07 38.5899ZM29.51 36.1399C29.32 36.2499 29.16 36.5199 29.16 36.7399V39.6899C29.16 39.9099 29.32 39.9999 29.51 39.8899L32.07 38.4099C32.26 38.2999 32.42 38.0299 32.42 37.8099V34.8599C32.42 34.6399 32.26 34.5499 32.07 34.6599L29.51 36.1399Z" fill="#4F2E16"/>
<path d="M34.61 36.71C34.57 36.73 34.54 36.71 34.54 36.67V34.56C34.54 34.51 34.57 34.46 34.61 34.44C34.65 34.42 34.68 34.44 34.68 34.48V36.6C34.69 36.63 34.65 36.69 34.61 36.71Z" fill="#4F2E16"/>
<path d="M35.8898 36.3699L33.3298 37.8499C33.0598 38.0099 32.8398 37.8799 32.8398 37.5699V34.6199C32.8398 34.3099 33.0598 33.9299 33.3298 33.7699L35.8898 32.2899C36.1598 32.1299 36.3798 32.2599 36.3798 32.5699V35.5199C36.3798 35.8399 36.1598 36.2199 35.8898 36.3699ZM33.3298 33.9299C33.1398 34.0399 32.9798 34.3099 32.9798 34.5299V37.4799C32.9798 37.6999 33.1398 37.7899 33.3298 37.6799L35.8898 36.1999C36.0798 36.0899 36.2398 35.8199 36.2398 35.5999V32.6399C36.2398 32.4199 36.0798 32.3299 35.8898 32.4399L33.3298 33.9299Z" fill="#4F2E16"/>
<path d="M35.6698 34.58C35.5698 34.19 35.1398 34.1 34.6098 34.4C34.0898 34.7 33.6498 35.29 33.5498 35.8L35.6698 34.58Z" fill="#4F2E16"/>
<path d="M34.2497 34.3498C34.2097 34.3698 34.1797 34.3498 34.1797 34.3098V33.7898C34.1797 33.7398 34.2097 33.6898 34.2497 33.6698C34.2897 33.6498 34.3197 33.6598 34.3197 33.7098V34.2298C34.3097 34.2698 34.2797 34.3198 34.2497 34.3498Z" fill="#4F2E16"/>
<path d="M34.6096 34.1297C34.5696 34.1497 34.5396 34.1397 34.5396 34.0897V33.5697C34.5396 33.5297 34.5696 33.4697 34.6096 33.4497C34.6496 33.4297 34.6796 33.4497 34.6796 33.4897V34.0097C34.6796 34.0597 34.6496 34.1097 34.6096 34.1297Z" fill="#4F2E16"/>
<path d="M34.9797 33.9198C34.9397 33.9398 34.9097 33.9298 34.9097 33.8798V33.3698C34.9097 33.3198 34.9397 33.2698 34.9797 33.2498C35.0197 33.2298 35.0497 33.2498 35.0497 33.2898V33.7998C35.0497 33.8398 35.0197 33.8998 34.9797 33.9198Z" fill="#4F2E16"/>
<path d="M39.6901 34.19L37.1301 35.67C36.8601 35.83 36.6401 35.7 36.6401 35.39V32.44C36.6401 32.13 36.8601 31.75 37.1301 31.59L39.6901 30.11C39.9601 29.95 40.1801 30.08 40.1801 30.39V33.34C40.1701 33.65 39.9601 34.03 39.6901 34.19ZM37.1301 31.75C36.9401 31.86 36.7801 32.13 36.7801 32.35V35.3C36.7801 35.52 36.9401 35.61 37.1301 35.5L39.6901 34.02C39.8801 33.91 40.0401 33.64 40.0401 33.42V30.46C40.0401 30.24 39.8801 30.15 39.6901 30.26L37.1301 31.75Z" fill="#4F2E16"/>
<path d="M38.4098 34.1201C38.3698 34.1401 38.3398 34.1201 38.3398 34.0801V31.9601C38.3398 31.9201 38.3698 31.8601 38.4098 31.8401C38.4498 31.8201 38.4798 31.8401 38.4798 31.8801V34.0001C38.4798 34.0501 38.4398 34.1001 38.4098 34.1201Z" fill="#4F2E16"/>
<path d="M38.73 33.9399L38.09 34.3099C38.05 34.3299 38.02 34.3199 38.02 34.2699C38.02 34.2199 38.05 34.1699 38.09 34.1499L38.73 33.7799C38.77 33.7599 38.8 33.7699 38.8 33.8199C38.79 33.8599 38.76 33.9199 38.73 33.9399Z" fill="#4F2E16"/>
<path d="M39.08 31.26V32.25C39.08 32.52 38.89 32.84 38.66 32.98L38.15 33.28C37.92 33.41 37.73 33.3 37.73 33.04V32.05L37.98 31.9V32.96C37.98 33 38.01 33.02 38.05 33C38.09 32.98 38.12 32.92 38.12 32.88V31.82L39.08 31.26Z" fill="#4F2E16"/>
<path d="M15.2298 23.8399V37.7099L10.5898 35.0499V21.1699L15.2298 23.8399Z" fill="#1A79D8"/>
<path d="M41.3098 8.7801L15.2298 23.8401L15.1998 23.8601L10.5898 21.1901V21.1701L15.2298 18.4901L36.6798 6.1001L41.3098 8.7801Z" fill="#2E89E5"/>
<path d="M50.8202 23.0799L45.7002 26.0399V21.6299L50.8202 18.6699V23.0799Z" fill="#E5E0DC"/>
<path d="M50.3304 19.99L46.1904 22.39V21.9L50.3304 19.5V19.99Z" fill="#4F2E16"/>
<path d="M50.3304 20.8799L46.1904 23.2799V23.0599L50.3304 20.6599V20.8799Z" fill="#B2AEAB"/>
<path d="M50.3304 21.46L46.1904 23.86V23.64L50.3304 21.24V21.46Z" fill="#B2AEAB"/>
<path d="M50.3304 22.0799L46.1904 24.4799V24.2599L50.3304 21.8699V22.0799Z" fill="#B2AEAB"/>
<path d="M50.3304 22.66L46.1904 25.0599V24.84L50.3304 22.45V22.66Z" fill="#B2AEAB"/>
</svg>
